<?xml version="1.0" standalone="no"?>
 <!DOCTYPE svg PUBLIC "-//W3C//DTD SVG 1.1//EN" 
 "http://www.w3.org/Graphics/SVG/1.1/DTD/svg11.dtd"> 
<svg xmlns="http://www.w3.org/2000/svg" version="1.1" 
    width="8.01624cm" height="4.01574cm" viewBox="0 0 31560 15810 ">
<title>SVG Picture created as co_sensor-Edge_Cuts.svg date 2020/05/05 18:43:23 </title>
  <desc>Picture generated by PCBNEW </desc>
<g style="fill:#000000; fill-opacity:1;stroke:#000000; stroke-opacity:1;
stroke-linecap:round; stroke-linejoin:round; "
 transform="translate(0 0) scale(1 1)">
</g>
<g style="fill:#000000; fill-opacity:0.0; 
stroke:#000000; stroke-width:-0.000393701; stroke-opacity:1; 
stroke-linecap:round; stroke-linejoin:round;">
</g>
<g style="fill:#000000; fill-opacity:0.0; 
stroke:#000000; stroke-width:59; stroke-opacity:1; 
stroke-linecap:round; stroke-linejoin:round;">
<circle cx="29563.4" cy="7903.52" r="984.252" /> 
<circle cx="2004.33" cy="13809" r="984.252" /> 
<circle cx="2004.33" cy="1998" r="984.252" /> 
<path d="M28579 29
L2601 55
" />
<path d="M31531 2982
L31531 12824
" />
<path d="M31531.9 2982.26 A2952.76 2952.76 0.0 0 0 28579.1 29.5004 " />
<path d="M28965 15751
L2988 15777
" />
<path d="M35 2982
L62 13211
" />
<path d="M2601.9 55.7997 A2745.63 2745.63 0.0 0 0 35.9151 2983.53 " />
<path d="M62.1276 13211.5 A2745.63 2745.63 0.0 0 0 2989.86 15777.4 " />
<path d="M28965.8 15751.2 A2745.63 2745.63 0.0 0 0 31531.8 12823.5 " />
<g >
</g>
<g >
</g>
<g >
</g>
<g >
</g>
<g >
</g>
<g >
</g>
<g >
</g>
<g >
</g>
<g >
</g>
<g >
</g>
<g >
</g>
<g >
</g>
<g >
</g>
<g >
</g>
<g >
</g>
<g >
</g>
<g >
</g>
<g >
</g>
<g >
</g>
<g >
</g>
<g >
</g>
<g >
</g>
<g >
</g>
<g >
</g>
<g >
</g>
<g >
</g>
<g >
</g>
<g >
</g>
<g >
</g>
<g >
</g>
<g >
</g>
<g >
</g>
<g >
</g>
<g >
</g>
<g >
</g>
<g >
</g>
<g >
</g>
<g >
</g>
<g >
</g>
<g >
</g>
<g >
</g>
<g >
</g>
</g> 
</svg>
