G04 #@! TF.GenerationSoftware,KiCad,Pcbnew,5.1.5-52549c5~86~ubuntu18.04.1*
G04 #@! TF.CreationDate,2020-05-06T11:13:41-04:00*
G04 #@! TF.ProjectId,co_sensor,636f5f73-656e-4736-9f72-2e6b69636164,1.0*
G04 #@! TF.SameCoordinates,Original*
G04 #@! TF.FileFunction,Copper,L1,Top*
G04 #@! TF.FilePolarity,Positive*
%FSLAX46Y46*%
G04 Gerber Fmt 4.6, Leading zero omitted, Abs format (unit mm)*
G04 Created by KiCad (PCBNEW 5.1.5-52549c5~86~ubuntu18.04.1) date 2020-05-06 11:13:41*
%MOMM*%
%LPD*%
G04 APERTURE LIST*
%ADD10R,3.500000X2.300000*%
%ADD11R,2.000000X2.500000*%
%ADD12C,1.524000*%
%ADD13C,0.150000*%
%ADD14C,2.000000*%
%ADD15R,2.000000X2.000000*%
%ADD16C,0.889000*%
%ADD17C,0.254000*%
G04 APERTURE END LIST*
D10*
X130500000Y-126150000D03*
X131500000Y-118850000D03*
D11*
X133500000Y-122500000D03*
D12*
X132540000Y-110080000D03*
X135080000Y-112620000D03*
X137620000Y-105000000D03*
X137620000Y-110080000D03*
X130000000Y-107540000D03*
X130000000Y-105000000D03*
X137620000Y-112620000D03*
X132540000Y-107540000D03*
X135080000Y-107540000D03*
X132540000Y-112620000D03*
X135080000Y-110080000D03*
X135080000Y-105000000D03*
X137620000Y-107540000D03*
X130000000Y-112620000D03*
X132540000Y-105000000D03*
X130000000Y-110080000D03*
X140120000Y-140120000D03*
X137580000Y-140120000D03*
X135040000Y-140120000D03*
X132500000Y-140120000D03*
X140120000Y-137580000D03*
X137580000Y-137580000D03*
X135040000Y-137580000D03*
X132500000Y-137580000D03*
X140120000Y-135040000D03*
X137580000Y-135040000D03*
X135040000Y-135040000D03*
X132500000Y-135040000D03*
X140120000Y-132500000D03*
X137580000Y-132500000D03*
X135040000Y-132500000D03*
X132500000Y-132500000D03*
G04 #@! TA.AperFunction,SMDPad,CuDef*
D13*
G36*
X143149504Y-107976204D02*
G01*
X143173773Y-107979804D01*
X143197571Y-107985765D01*
X143220671Y-107994030D01*
X143242849Y-108004520D01*
X143263893Y-108017133D01*
X143283598Y-108031747D01*
X143301777Y-108048223D01*
X143318253Y-108066402D01*
X143332867Y-108086107D01*
X143345480Y-108107151D01*
X143355970Y-108129329D01*
X143364235Y-108152429D01*
X143370196Y-108176227D01*
X143373796Y-108200496D01*
X143375000Y-108225000D01*
X143375000Y-108975000D01*
X143373796Y-108999504D01*
X143370196Y-109023773D01*
X143364235Y-109047571D01*
X143355970Y-109070671D01*
X143345480Y-109092849D01*
X143332867Y-109113893D01*
X143318253Y-109133598D01*
X143301777Y-109151777D01*
X143283598Y-109168253D01*
X143263893Y-109182867D01*
X143242849Y-109195480D01*
X143220671Y-109205970D01*
X143197571Y-109214235D01*
X143173773Y-109220196D01*
X143149504Y-109223796D01*
X143125000Y-109225000D01*
X141875000Y-109225000D01*
X141850496Y-109223796D01*
X141826227Y-109220196D01*
X141802429Y-109214235D01*
X141779329Y-109205970D01*
X141757151Y-109195480D01*
X141736107Y-109182867D01*
X141716402Y-109168253D01*
X141698223Y-109151777D01*
X141681747Y-109133598D01*
X141667133Y-109113893D01*
X141654520Y-109092849D01*
X141644030Y-109070671D01*
X141635765Y-109047571D01*
X141629804Y-109023773D01*
X141626204Y-108999504D01*
X141625000Y-108975000D01*
X141625000Y-108225000D01*
X141626204Y-108200496D01*
X141629804Y-108176227D01*
X141635765Y-108152429D01*
X141644030Y-108129329D01*
X141654520Y-108107151D01*
X141667133Y-108086107D01*
X141681747Y-108066402D01*
X141698223Y-108048223D01*
X141716402Y-108031747D01*
X141736107Y-108017133D01*
X141757151Y-108004520D01*
X141779329Y-107994030D01*
X141802429Y-107985765D01*
X141826227Y-107979804D01*
X141850496Y-107976204D01*
X141875000Y-107975000D01*
X143125000Y-107975000D01*
X143149504Y-107976204D01*
G37*
G04 #@! TD.AperFunction*
G04 #@! TA.AperFunction,SMDPad,CuDef*
G36*
X143149504Y-110776204D02*
G01*
X143173773Y-110779804D01*
X143197571Y-110785765D01*
X143220671Y-110794030D01*
X143242849Y-110804520D01*
X143263893Y-110817133D01*
X143283598Y-110831747D01*
X143301777Y-110848223D01*
X143318253Y-110866402D01*
X143332867Y-110886107D01*
X143345480Y-110907151D01*
X143355970Y-110929329D01*
X143364235Y-110952429D01*
X143370196Y-110976227D01*
X143373796Y-111000496D01*
X143375000Y-111025000D01*
X143375000Y-111775000D01*
X143373796Y-111799504D01*
X143370196Y-111823773D01*
X143364235Y-111847571D01*
X143355970Y-111870671D01*
X143345480Y-111892849D01*
X143332867Y-111913893D01*
X143318253Y-111933598D01*
X143301777Y-111951777D01*
X143283598Y-111968253D01*
X143263893Y-111982867D01*
X143242849Y-111995480D01*
X143220671Y-112005970D01*
X143197571Y-112014235D01*
X143173773Y-112020196D01*
X143149504Y-112023796D01*
X143125000Y-112025000D01*
X141875000Y-112025000D01*
X141850496Y-112023796D01*
X141826227Y-112020196D01*
X141802429Y-112014235D01*
X141779329Y-112005970D01*
X141757151Y-111995480D01*
X141736107Y-111982867D01*
X141716402Y-111968253D01*
X141698223Y-111951777D01*
X141681747Y-111933598D01*
X141667133Y-111913893D01*
X141654520Y-111892849D01*
X141644030Y-111870671D01*
X141635765Y-111847571D01*
X141629804Y-111823773D01*
X141626204Y-111799504D01*
X141625000Y-111775000D01*
X141625000Y-111025000D01*
X141626204Y-111000496D01*
X141629804Y-110976227D01*
X141635765Y-110952429D01*
X141644030Y-110929329D01*
X141654520Y-110907151D01*
X141667133Y-110886107D01*
X141681747Y-110866402D01*
X141698223Y-110848223D01*
X141716402Y-110831747D01*
X141736107Y-110817133D01*
X141757151Y-110804520D01*
X141779329Y-110794030D01*
X141802429Y-110785765D01*
X141826227Y-110779804D01*
X141850496Y-110776204D01*
X141875000Y-110775000D01*
X143125000Y-110775000D01*
X143149504Y-110776204D01*
G37*
G04 #@! TD.AperFunction*
D14*
X162500000Y-118280000D03*
X155780000Y-118280000D03*
X155780000Y-125000000D03*
D15*
X162500000Y-125000000D03*
D14*
X159140000Y-116890000D03*
X159140000Y-126390000D03*
D12*
X151130000Y-107950000D03*
X153670000Y-107950000D03*
X156210000Y-107950000D03*
X158750000Y-107950000D03*
X161290000Y-107950000D03*
X163830000Y-107950000D03*
X166370000Y-107950000D03*
X168910000Y-107950000D03*
X171450000Y-107950000D03*
X173990000Y-107950000D03*
X176530000Y-107950000D03*
X179070000Y-107950000D03*
X181610000Y-107950000D03*
X184150000Y-107950000D03*
X186690000Y-107950000D03*
X186690000Y-135890000D03*
X184150000Y-135890000D03*
X181610000Y-135890000D03*
X179070000Y-135890000D03*
X176530000Y-135890000D03*
X173990000Y-135890000D03*
X171450000Y-135890000D03*
X168910000Y-135890000D03*
X166370000Y-135890000D03*
X163830000Y-135890000D03*
X161290000Y-135890000D03*
X158750000Y-135890000D03*
X156210000Y-135890000D03*
X153670000Y-135890000D03*
X151130000Y-135890000D03*
D16*
X140000000Y-117500000D03*
X150000000Y-120000000D03*
X152500000Y-120000000D03*
X145000000Y-112500000D03*
X150000000Y-130000000D03*
D17*
X138300000Y-125104000D02*
X138300000Y-123200000D01*
X150229001Y-137033001D02*
X138300000Y-125104000D01*
X186690000Y-135890000D02*
X185546999Y-137033001D01*
X185546999Y-137033001D02*
X150229001Y-137033001D01*
X138300000Y-119200000D02*
X138300000Y-123200000D01*
X140000000Y-117500000D02*
X138300000Y-119200000D01*
X139371383Y-117500000D02*
X140000000Y-117500000D01*
X133500000Y-120996000D02*
X136996000Y-117500000D01*
X136996000Y-117500000D02*
X139371383Y-117500000D01*
X133500000Y-122500000D02*
X133500000Y-120996000D01*
X159140000Y-127880000D02*
X151130000Y-135890000D01*
X159140000Y-126390000D02*
X159140000Y-127880000D01*
X157194213Y-118280000D02*
X162500000Y-118280000D01*
X155780000Y-118280000D02*
X157194213Y-118280000D01*
X163881001Y-126304801D02*
X163795802Y-126390000D01*
X160554213Y-126390000D02*
X159140000Y-126390000D01*
X163881001Y-119661001D02*
X163881001Y-126304801D01*
X163795802Y-126390000D02*
X160554213Y-126390000D01*
X162500000Y-118280000D02*
X163881001Y-119661001D01*
X162500000Y-125000000D02*
X155780000Y-125000000D01*
X155780000Y-125000000D02*
X150780000Y-120000000D01*
X150780000Y-120000000D02*
X150000000Y-120000000D01*
X152500000Y-119516118D02*
X152500000Y-120000000D01*
X159140000Y-116890000D02*
X155126118Y-116890000D01*
X155126118Y-116890000D02*
X152500000Y-119516118D01*
X145000000Y-110225000D02*
X145000000Y-112500000D01*
X142500000Y-108600000D02*
X143375000Y-108600000D01*
X143375000Y-108600000D02*
X145000000Y-110225000D01*
X150368001Y-108711999D02*
X151130000Y-107950000D01*
X149174499Y-109905501D02*
X150368001Y-108711999D01*
X149174499Y-129174499D02*
X149174499Y-109905501D01*
X150000000Y-130000000D02*
X149174499Y-129174499D01*
X142500000Y-122500000D02*
X142500000Y-111400000D01*
X150000000Y-130000000D02*
X142500000Y-122500000D01*
G36*
X193479921Y-103282898D02*
G01*
X194439310Y-103494712D01*
X195358078Y-103842801D01*
X196216970Y-104319873D01*
X196998000Y-104915937D01*
X197684801Y-105618500D01*
X198262993Y-106412852D01*
X198720456Y-107282347D01*
X199047612Y-108208774D01*
X199238388Y-109176698D01*
X199290070Y-110021693D01*
X199290071Y-134988055D01*
X199289870Y-134991405D01*
X199282289Y-135995296D01*
X199131516Y-136933179D01*
X198840617Y-137837451D01*
X198416279Y-138687327D01*
X197868274Y-139463235D01*
X197209212Y-140147320D01*
X196454252Y-140723849D01*
X195620769Y-141179551D01*
X194727958Y-141503931D01*
X193779871Y-141692815D01*
X193449156Y-141723304D01*
X127511730Y-141790058D01*
X127508595Y-141789870D01*
X126504704Y-141782289D01*
X125566821Y-141631516D01*
X124662549Y-141340617D01*
X123812673Y-140916279D01*
X123036765Y-140368274D01*
X122352680Y-139709212D01*
X121776151Y-138954252D01*
X121320449Y-138120769D01*
X120996069Y-137227958D01*
X120987195Y-137183411D01*
X121785623Y-137183411D01*
X121785623Y-137816589D01*
X121909150Y-138437599D01*
X122151456Y-139022578D01*
X122503230Y-139549046D01*
X122950954Y-139996770D01*
X123477422Y-140348544D01*
X124062401Y-140590850D01*
X124683411Y-140714377D01*
X125316589Y-140714377D01*
X125937599Y-140590850D01*
X126522578Y-140348544D01*
X127049046Y-139996770D01*
X127496770Y-139549046D01*
X127848544Y-139022578D01*
X128090850Y-138437599D01*
X128214377Y-137816589D01*
X128214377Y-137183411D01*
X128090850Y-136562401D01*
X127848544Y-135977422D01*
X127496770Y-135450954D01*
X127049046Y-135003230D01*
X126522578Y-134651456D01*
X125937599Y-134409150D01*
X125316589Y-134285623D01*
X124683411Y-134285623D01*
X124062401Y-134409150D01*
X123477422Y-134651456D01*
X122950954Y-135003230D01*
X122503230Y-135450954D01*
X122151456Y-135977422D01*
X121909150Y-136562401D01*
X121785623Y-137183411D01*
X120987195Y-137183411D01*
X120807185Y-136279871D01*
X120776646Y-135948611D01*
X120754411Y-127300000D01*
X128111928Y-127300000D01*
X128124188Y-127424482D01*
X128160498Y-127544180D01*
X128219463Y-127654494D01*
X128298815Y-127751185D01*
X128395506Y-127830537D01*
X128505820Y-127889502D01*
X128625518Y-127925812D01*
X128750000Y-127938072D01*
X130214250Y-127935000D01*
X130373000Y-127776250D01*
X130373000Y-126277000D01*
X130627000Y-126277000D01*
X130627000Y-127776250D01*
X130785750Y-127935000D01*
X132250000Y-127938072D01*
X132374482Y-127925812D01*
X132494180Y-127889502D01*
X132604494Y-127830537D01*
X132701185Y-127751185D01*
X132780537Y-127654494D01*
X132839502Y-127544180D01*
X132875812Y-127424482D01*
X132888072Y-127300000D01*
X132885000Y-126435750D01*
X132726250Y-126277000D01*
X130627000Y-126277000D01*
X130373000Y-126277000D01*
X128273750Y-126277000D01*
X128115000Y-126435750D01*
X128111928Y-127300000D01*
X120754411Y-127300000D01*
X120748498Y-125000000D01*
X128111928Y-125000000D01*
X128115000Y-125864250D01*
X128273750Y-126023000D01*
X130373000Y-126023000D01*
X130373000Y-124523750D01*
X130214250Y-124365000D01*
X128750000Y-124361928D01*
X128625518Y-124374188D01*
X128505820Y-124410498D01*
X128395506Y-124469463D01*
X128298815Y-124548815D01*
X128219463Y-124645506D01*
X128160498Y-124755820D01*
X128124188Y-124875518D01*
X128111928Y-125000000D01*
X120748498Y-125000000D01*
X120741707Y-122358665D01*
X123065000Y-122358665D01*
X123065000Y-122641335D01*
X123120147Y-122918574D01*
X123228320Y-123179727D01*
X123385363Y-123414759D01*
X123585241Y-123614637D01*
X123820273Y-123771680D01*
X124081426Y-123879853D01*
X124358665Y-123935000D01*
X124641335Y-123935000D01*
X124918574Y-123879853D01*
X125179727Y-123771680D01*
X125414759Y-123614637D01*
X125614637Y-123414759D01*
X125771680Y-123179727D01*
X125879853Y-122918574D01*
X125935000Y-122641335D01*
X125935000Y-122358665D01*
X128565000Y-122358665D01*
X128565000Y-122641335D01*
X128620147Y-122918574D01*
X128728320Y-123179727D01*
X128885363Y-123414759D01*
X129085241Y-123614637D01*
X129320273Y-123771680D01*
X129581426Y-123879853D01*
X129858665Y-123935000D01*
X130141335Y-123935000D01*
X130418574Y-123879853D01*
X130679727Y-123771680D01*
X130914759Y-123614637D01*
X131114637Y-123414759D01*
X131271680Y-123179727D01*
X131379853Y-122918574D01*
X131435000Y-122641335D01*
X131435000Y-122358665D01*
X131379853Y-122081426D01*
X131271680Y-121820273D01*
X131114637Y-121585241D01*
X130914759Y-121385363D01*
X130679727Y-121228320D01*
X130418574Y-121120147D01*
X130141335Y-121065000D01*
X129858665Y-121065000D01*
X129581426Y-121120147D01*
X129320273Y-121228320D01*
X129085241Y-121385363D01*
X128885363Y-121585241D01*
X128728320Y-121820273D01*
X128620147Y-122081426D01*
X128565000Y-122358665D01*
X125935000Y-122358665D01*
X125879853Y-122081426D01*
X125771680Y-121820273D01*
X125614637Y-121585241D01*
X125414759Y-121385363D01*
X125179727Y-121228320D01*
X124918574Y-121120147D01*
X124641335Y-121065000D01*
X124358665Y-121065000D01*
X124081426Y-121120147D01*
X123820273Y-121228320D01*
X123585241Y-121385363D01*
X123385363Y-121585241D01*
X123228320Y-121820273D01*
X123120147Y-122081426D01*
X123065000Y-122358665D01*
X120741707Y-122358665D01*
X120729730Y-117700000D01*
X129111928Y-117700000D01*
X129111928Y-120000000D01*
X129124188Y-120124482D01*
X129160498Y-120244180D01*
X129219463Y-120354494D01*
X129298815Y-120451185D01*
X129395506Y-120530537D01*
X129505820Y-120589502D01*
X129625518Y-120625812D01*
X129750000Y-120638072D01*
X132329749Y-120638072D01*
X132255820Y-120660498D01*
X132145506Y-120719463D01*
X132048815Y-120798815D01*
X131969463Y-120895506D01*
X131910498Y-121005820D01*
X131874188Y-121125518D01*
X131861928Y-121250000D01*
X131861928Y-123750000D01*
X131874188Y-123874482D01*
X131910498Y-123994180D01*
X131969463Y-124104494D01*
X132048815Y-124201185D01*
X132145506Y-124280537D01*
X132255820Y-124339502D01*
X132368089Y-124373558D01*
X132250000Y-124361928D01*
X130785750Y-124365000D01*
X130627000Y-124523750D01*
X130627000Y-126023000D01*
X132726250Y-126023000D01*
X132885000Y-125864250D01*
X132888072Y-125000000D01*
X132875812Y-124875518D01*
X132839502Y-124755820D01*
X132780537Y-124645506D01*
X132701185Y-124548815D01*
X132604494Y-124469463D01*
X132494180Y-124410498D01*
X132381911Y-124376442D01*
X132500000Y-124388072D01*
X134500000Y-124388072D01*
X134624482Y-124375812D01*
X134744180Y-124339502D01*
X134854494Y-124280537D01*
X134951185Y-124201185D01*
X135030537Y-124104494D01*
X135089502Y-123994180D01*
X135125812Y-123874482D01*
X135138072Y-123750000D01*
X135138072Y-121250000D01*
X135125812Y-121125518D01*
X135089502Y-121005820D01*
X135030537Y-120895506D01*
X134951185Y-120798815D01*
X134854494Y-120719463D01*
X134854281Y-120719349D01*
X137311630Y-118262000D01*
X138160370Y-118262000D01*
X137787654Y-118634716D01*
X137758578Y-118658578D01*
X137702983Y-118726322D01*
X137663355Y-118774608D01*
X137645124Y-118808716D01*
X137592598Y-118906986D01*
X137549026Y-119050623D01*
X137542235Y-119119579D01*
X137534314Y-119200000D01*
X137538000Y-119237423D01*
X137538001Y-123162574D01*
X137538000Y-125066576D01*
X137534314Y-125104000D01*
X137538000Y-125141423D01*
X137538000Y-125141425D01*
X137549026Y-125253377D01*
X137592598Y-125397014D01*
X137625535Y-125458635D01*
X137663355Y-125529392D01*
X137692807Y-125565279D01*
X137758578Y-125645422D01*
X137787654Y-125669284D01*
X149663722Y-137545353D01*
X149687579Y-137574423D01*
X149716649Y-137598280D01*
X149803608Y-137669646D01*
X149814482Y-137675458D01*
X149935986Y-137740403D01*
X150079623Y-137783975D01*
X150191575Y-137795001D01*
X150191578Y-137795001D01*
X150229001Y-137798687D01*
X150266424Y-137795001D01*
X185509576Y-137795001D01*
X185546999Y-137798687D01*
X185584422Y-137795001D01*
X185584425Y-137795001D01*
X185696377Y-137783975D01*
X185840014Y-137740403D01*
X185972391Y-137669646D01*
X186088421Y-137574423D01*
X186112283Y-137545347D01*
X186400789Y-137256841D01*
X186552408Y-137287000D01*
X186827592Y-137287000D01*
X187097490Y-137233314D01*
X187351727Y-137128005D01*
X187580535Y-136975120D01*
X187775120Y-136780535D01*
X187928005Y-136551727D01*
X188033314Y-136297490D01*
X188087000Y-136027592D01*
X188087000Y-135752408D01*
X188033314Y-135482510D01*
X187928005Y-135228273D01*
X187775120Y-134999465D01*
X187580535Y-134804880D01*
X187351727Y-134651995D01*
X187097490Y-134546686D01*
X186827592Y-134493000D01*
X186552408Y-134493000D01*
X186282510Y-134546686D01*
X186028273Y-134651995D01*
X185799465Y-134804880D01*
X185604880Y-134999465D01*
X185451995Y-135228273D01*
X185422308Y-135299943D01*
X185417636Y-135286977D01*
X185355656Y-135171020D01*
X185115565Y-135104040D01*
X184329605Y-135890000D01*
X184343748Y-135904143D01*
X184164143Y-136083748D01*
X184150000Y-136069605D01*
X184135858Y-136083748D01*
X183956253Y-135904143D01*
X183970395Y-135890000D01*
X183184435Y-135104040D01*
X182944344Y-135171020D01*
X182880515Y-135306760D01*
X182848005Y-135228273D01*
X182695120Y-134999465D01*
X182620090Y-134924435D01*
X183364040Y-134924435D01*
X184150000Y-135710395D01*
X184935960Y-134924435D01*
X184868980Y-134684344D01*
X184619952Y-134567244D01*
X184352865Y-134500977D01*
X184077983Y-134488090D01*
X183805867Y-134529078D01*
X183546977Y-134622364D01*
X183431020Y-134684344D01*
X183364040Y-134924435D01*
X182620090Y-134924435D01*
X182500535Y-134804880D01*
X182271727Y-134651995D01*
X182017490Y-134546686D01*
X181747592Y-134493000D01*
X181472408Y-134493000D01*
X181202510Y-134546686D01*
X180948273Y-134651995D01*
X180719465Y-134804880D01*
X180524880Y-134999465D01*
X180371995Y-135228273D01*
X180340000Y-135305515D01*
X180308005Y-135228273D01*
X180155120Y-134999465D01*
X179960535Y-134804880D01*
X179731727Y-134651995D01*
X179477490Y-134546686D01*
X179207592Y-134493000D01*
X178932408Y-134493000D01*
X178662510Y-134546686D01*
X178408273Y-134651995D01*
X178179465Y-134804880D01*
X177984880Y-134999465D01*
X177831995Y-135228273D01*
X177800000Y-135305515D01*
X177768005Y-135228273D01*
X177615120Y-134999465D01*
X177420535Y-134804880D01*
X177191727Y-134651995D01*
X176937490Y-134546686D01*
X176667592Y-134493000D01*
X176392408Y-134493000D01*
X176122510Y-134546686D01*
X175868273Y-134651995D01*
X175639465Y-134804880D01*
X175444880Y-134999465D01*
X175291995Y-135228273D01*
X175262308Y-135299943D01*
X175257636Y-135286977D01*
X175195656Y-135171020D01*
X174955565Y-135104040D01*
X174169605Y-135890000D01*
X174183748Y-135904143D01*
X174004143Y-136083748D01*
X173990000Y-136069605D01*
X173975858Y-136083748D01*
X173796253Y-135904143D01*
X173810395Y-135890000D01*
X173024435Y-135104040D01*
X172784344Y-135171020D01*
X172720515Y-135306760D01*
X172688005Y-135228273D01*
X172535120Y-134999465D01*
X172460090Y-134924435D01*
X173204040Y-134924435D01*
X173990000Y-135710395D01*
X174775960Y-134924435D01*
X174708980Y-134684344D01*
X174459952Y-134567244D01*
X174192865Y-134500977D01*
X173917983Y-134488090D01*
X173645867Y-134529078D01*
X173386977Y-134622364D01*
X173271020Y-134684344D01*
X173204040Y-134924435D01*
X172460090Y-134924435D01*
X172340535Y-134804880D01*
X172111727Y-134651995D01*
X171857490Y-134546686D01*
X171587592Y-134493000D01*
X171312408Y-134493000D01*
X171042510Y-134546686D01*
X170788273Y-134651995D01*
X170559465Y-134804880D01*
X170364880Y-134999465D01*
X170211995Y-135228273D01*
X170180000Y-135305515D01*
X170148005Y-135228273D01*
X169995120Y-134999465D01*
X169800535Y-134804880D01*
X169571727Y-134651995D01*
X169317490Y-134546686D01*
X169047592Y-134493000D01*
X168772408Y-134493000D01*
X168502510Y-134546686D01*
X168248273Y-134651995D01*
X168019465Y-134804880D01*
X167824880Y-134999465D01*
X167671995Y-135228273D01*
X167640000Y-135305515D01*
X167608005Y-135228273D01*
X167455120Y-134999465D01*
X167260535Y-134804880D01*
X167031727Y-134651995D01*
X166777490Y-134546686D01*
X166507592Y-134493000D01*
X166232408Y-134493000D01*
X165962510Y-134546686D01*
X165708273Y-134651995D01*
X165479465Y-134804880D01*
X165284880Y-134999465D01*
X165131995Y-135228273D01*
X165100000Y-135305515D01*
X165068005Y-135228273D01*
X164915120Y-134999465D01*
X164720535Y-134804880D01*
X164491727Y-134651995D01*
X164237490Y-134546686D01*
X163967592Y-134493000D01*
X163692408Y-134493000D01*
X163422510Y-134546686D01*
X163168273Y-134651995D01*
X162939465Y-134804880D01*
X162744880Y-134999465D01*
X162591995Y-135228273D01*
X162560000Y-135305515D01*
X162528005Y-135228273D01*
X162375120Y-134999465D01*
X162180535Y-134804880D01*
X161951727Y-134651995D01*
X161697490Y-134546686D01*
X161427592Y-134493000D01*
X161152408Y-134493000D01*
X160882510Y-134546686D01*
X160628273Y-134651995D01*
X160399465Y-134804880D01*
X160204880Y-134999465D01*
X160051995Y-135228273D01*
X160020000Y-135305515D01*
X159988005Y-135228273D01*
X159835120Y-134999465D01*
X159640535Y-134804880D01*
X159411727Y-134651995D01*
X159157490Y-134546686D01*
X158887592Y-134493000D01*
X158612408Y-134493000D01*
X158342510Y-134546686D01*
X158088273Y-134651995D01*
X157859465Y-134804880D01*
X157664880Y-134999465D01*
X157511995Y-135228273D01*
X157480000Y-135305515D01*
X157448005Y-135228273D01*
X157295120Y-134999465D01*
X157100535Y-134804880D01*
X156871727Y-134651995D01*
X156617490Y-134546686D01*
X156347592Y-134493000D01*
X156072408Y-134493000D01*
X155802510Y-134546686D01*
X155548273Y-134651995D01*
X155319465Y-134804880D01*
X155124880Y-134999465D01*
X154971995Y-135228273D01*
X154940000Y-135305515D01*
X154908005Y-135228273D01*
X154755120Y-134999465D01*
X154560535Y-134804880D01*
X154331727Y-134651995D01*
X154077490Y-134546686D01*
X153807592Y-134493000D01*
X153604630Y-134493000D01*
X159652346Y-128445284D01*
X159681422Y-128421422D01*
X159741857Y-128347781D01*
X159776645Y-128305393D01*
X159847401Y-128173016D01*
X159847402Y-128173015D01*
X159890974Y-128029378D01*
X159902000Y-127917426D01*
X159902000Y-127917423D01*
X159905686Y-127880000D01*
X159902142Y-127844021D01*
X159914463Y-127838918D01*
X160182252Y-127659987D01*
X160409987Y-127432252D01*
X160588918Y-127164463D01*
X160594080Y-127152000D01*
X163758379Y-127152000D01*
X163795802Y-127155686D01*
X163833225Y-127152000D01*
X163833228Y-127152000D01*
X163945180Y-127140974D01*
X164088817Y-127097402D01*
X164221194Y-127026645D01*
X164337224Y-126931422D01*
X164361088Y-126902344D01*
X164393344Y-126870088D01*
X164422423Y-126846223D01*
X164517646Y-126730193D01*
X164588403Y-126597816D01*
X164631975Y-126454179D01*
X164643001Y-126342227D01*
X164643001Y-126342224D01*
X164646687Y-126304801D01*
X164643001Y-126267378D01*
X164643001Y-122183411D01*
X191785623Y-122183411D01*
X191785623Y-122816589D01*
X191909150Y-123437599D01*
X192151456Y-124022578D01*
X192503230Y-124549046D01*
X192950954Y-124996770D01*
X193477422Y-125348544D01*
X194062401Y-125590850D01*
X194683411Y-125714377D01*
X195316589Y-125714377D01*
X195937599Y-125590850D01*
X196522578Y-125348544D01*
X197049046Y-124996770D01*
X197496770Y-124549046D01*
X197848544Y-124022578D01*
X198090850Y-123437599D01*
X198214377Y-122816589D01*
X198214377Y-122183411D01*
X198090850Y-121562401D01*
X197848544Y-120977422D01*
X197496770Y-120450954D01*
X197049046Y-120003230D01*
X196522578Y-119651456D01*
X195937599Y-119409150D01*
X195316589Y-119285623D01*
X194683411Y-119285623D01*
X194062401Y-119409150D01*
X193477422Y-119651456D01*
X192950954Y-120003230D01*
X192503230Y-120450954D01*
X192151456Y-120977422D01*
X191909150Y-121562401D01*
X191785623Y-122183411D01*
X164643001Y-122183411D01*
X164643001Y-119698423D01*
X164646687Y-119661000D01*
X164635753Y-119549987D01*
X164631975Y-119511623D01*
X164588403Y-119367986D01*
X164517646Y-119235609D01*
X164422423Y-119119579D01*
X164393354Y-119095723D01*
X164067006Y-118769375D01*
X164072168Y-118756912D01*
X164135000Y-118441033D01*
X164135000Y-118118967D01*
X164072168Y-117803088D01*
X163948918Y-117505537D01*
X163769987Y-117237748D01*
X163542252Y-117010013D01*
X163274463Y-116831082D01*
X162976912Y-116707832D01*
X162661033Y-116645000D01*
X162338967Y-116645000D01*
X162023088Y-116707832D01*
X161725537Y-116831082D01*
X161457748Y-117010013D01*
X161230013Y-117237748D01*
X161051082Y-117505537D01*
X161045920Y-117518000D01*
X160649585Y-117518000D01*
X160712168Y-117366912D01*
X160775000Y-117051033D01*
X160775000Y-116728967D01*
X160712168Y-116413088D01*
X160588918Y-116115537D01*
X160409987Y-115847748D01*
X160182252Y-115620013D01*
X159914463Y-115441082D01*
X159616912Y-115317832D01*
X159301033Y-115255000D01*
X158978967Y-115255000D01*
X158663088Y-115317832D01*
X158365537Y-115441082D01*
X158097748Y-115620013D01*
X157870013Y-115847748D01*
X157691082Y-116115537D01*
X157685920Y-116128000D01*
X155163541Y-116128000D01*
X155126118Y-116124314D01*
X155088695Y-116128000D01*
X155088692Y-116128000D01*
X154976740Y-116139026D01*
X154833103Y-116182598D01*
X154771482Y-116215535D01*
X154700725Y-116253355D01*
X154658337Y-116288143D01*
X154584696Y-116348578D01*
X154560834Y-116377654D01*
X151987654Y-118950834D01*
X151958578Y-118974696D01*
X151903344Y-119042000D01*
X151863355Y-119090726D01*
X151847933Y-119119579D01*
X151833121Y-119147291D01*
X151811859Y-119161498D01*
X151661498Y-119311859D01*
X151543360Y-119488665D01*
X151485641Y-119628011D01*
X151345284Y-119487654D01*
X151321422Y-119458578D01*
X151205392Y-119363355D01*
X151073015Y-119292598D01*
X150929378Y-119249026D01*
X150817426Y-119238000D01*
X150817423Y-119238000D01*
X150780000Y-119234314D01*
X150762664Y-119236021D01*
X150688141Y-119161498D01*
X150511335Y-119043360D01*
X150314878Y-118961985D01*
X150106321Y-118920500D01*
X149936499Y-118920500D01*
X149936499Y-110221131D01*
X150840789Y-109316841D01*
X150992408Y-109347000D01*
X151267592Y-109347000D01*
X151537490Y-109293314D01*
X151791727Y-109188005D01*
X152020535Y-109035120D01*
X152215120Y-108840535D01*
X152368005Y-108611727D01*
X152400000Y-108534485D01*
X152431995Y-108611727D01*
X152584880Y-108840535D01*
X152779465Y-109035120D01*
X153008273Y-109188005D01*
X153262510Y-109293314D01*
X153532408Y-109347000D01*
X153807592Y-109347000D01*
X154077490Y-109293314D01*
X154331727Y-109188005D01*
X154560535Y-109035120D01*
X154755120Y-108840535D01*
X154908005Y-108611727D01*
X154940000Y-108534485D01*
X154971995Y-108611727D01*
X155124880Y-108840535D01*
X155319465Y-109035120D01*
X155548273Y-109188005D01*
X155802510Y-109293314D01*
X156072408Y-109347000D01*
X156347592Y-109347000D01*
X156617490Y-109293314D01*
X156871727Y-109188005D01*
X157100535Y-109035120D01*
X157295120Y-108840535D01*
X157448005Y-108611727D01*
X157480000Y-108534485D01*
X157511995Y-108611727D01*
X157664880Y-108840535D01*
X157859465Y-109035120D01*
X158088273Y-109188005D01*
X158342510Y-109293314D01*
X158612408Y-109347000D01*
X158887592Y-109347000D01*
X159157490Y-109293314D01*
X159411727Y-109188005D01*
X159640535Y-109035120D01*
X159835120Y-108840535D01*
X159988005Y-108611727D01*
X160020000Y-108534485D01*
X160051995Y-108611727D01*
X160204880Y-108840535D01*
X160399465Y-109035120D01*
X160628273Y-109188005D01*
X160882510Y-109293314D01*
X161152408Y-109347000D01*
X161427592Y-109347000D01*
X161697490Y-109293314D01*
X161951727Y-109188005D01*
X162180535Y-109035120D01*
X162375120Y-108840535D01*
X162528005Y-108611727D01*
X162560000Y-108534485D01*
X162591995Y-108611727D01*
X162744880Y-108840535D01*
X162939465Y-109035120D01*
X163168273Y-109188005D01*
X163422510Y-109293314D01*
X163692408Y-109347000D01*
X163967592Y-109347000D01*
X164237490Y-109293314D01*
X164491727Y-109188005D01*
X164720535Y-109035120D01*
X164915120Y-108840535D01*
X165068005Y-108611727D01*
X165100000Y-108534485D01*
X165131995Y-108611727D01*
X165284880Y-108840535D01*
X165479465Y-109035120D01*
X165708273Y-109188005D01*
X165962510Y-109293314D01*
X166232408Y-109347000D01*
X166507592Y-109347000D01*
X166777490Y-109293314D01*
X167031727Y-109188005D01*
X167260535Y-109035120D01*
X167455120Y-108840535D01*
X167608005Y-108611727D01*
X167640000Y-108534485D01*
X167671995Y-108611727D01*
X167824880Y-108840535D01*
X168019465Y-109035120D01*
X168248273Y-109188005D01*
X168502510Y-109293314D01*
X168772408Y-109347000D01*
X169047592Y-109347000D01*
X169317490Y-109293314D01*
X169571727Y-109188005D01*
X169800535Y-109035120D01*
X169995120Y-108840535D01*
X170148005Y-108611727D01*
X170180000Y-108534485D01*
X170211995Y-108611727D01*
X170364880Y-108840535D01*
X170559465Y-109035120D01*
X170788273Y-109188005D01*
X171042510Y-109293314D01*
X171312408Y-109347000D01*
X171587592Y-109347000D01*
X171857490Y-109293314D01*
X172111727Y-109188005D01*
X172340535Y-109035120D01*
X172535120Y-108840535D01*
X172688005Y-108611727D01*
X172720000Y-108534485D01*
X172751995Y-108611727D01*
X172904880Y-108840535D01*
X173099465Y-109035120D01*
X173328273Y-109188005D01*
X173582510Y-109293314D01*
X173852408Y-109347000D01*
X174127592Y-109347000D01*
X174397490Y-109293314D01*
X174651727Y-109188005D01*
X174880535Y-109035120D01*
X175075120Y-108840535D01*
X175228005Y-108611727D01*
X175260000Y-108534485D01*
X175291995Y-108611727D01*
X175444880Y-108840535D01*
X175639465Y-109035120D01*
X175868273Y-109188005D01*
X176122510Y-109293314D01*
X176392408Y-109347000D01*
X176667592Y-109347000D01*
X176937490Y-109293314D01*
X177191727Y-109188005D01*
X177420535Y-109035120D01*
X177615120Y-108840535D01*
X177768005Y-108611727D01*
X177800000Y-108534485D01*
X177831995Y-108611727D01*
X177984880Y-108840535D01*
X178179465Y-109035120D01*
X178408273Y-109188005D01*
X178662510Y-109293314D01*
X178932408Y-109347000D01*
X179207592Y-109347000D01*
X179477490Y-109293314D01*
X179731727Y-109188005D01*
X179960535Y-109035120D01*
X180155120Y-108840535D01*
X180308005Y-108611727D01*
X180340000Y-108534485D01*
X180371995Y-108611727D01*
X180524880Y-108840535D01*
X180719465Y-109035120D01*
X180948273Y-109188005D01*
X181202510Y-109293314D01*
X181472408Y-109347000D01*
X181747592Y-109347000D01*
X182017490Y-109293314D01*
X182271727Y-109188005D01*
X182500535Y-109035120D01*
X182695120Y-108840535D01*
X182848005Y-108611727D01*
X182880000Y-108534485D01*
X182911995Y-108611727D01*
X183064880Y-108840535D01*
X183259465Y-109035120D01*
X183488273Y-109188005D01*
X183742510Y-109293314D01*
X184012408Y-109347000D01*
X184287592Y-109347000D01*
X184557490Y-109293314D01*
X184811727Y-109188005D01*
X185040535Y-109035120D01*
X185235120Y-108840535D01*
X185388005Y-108611727D01*
X185420000Y-108534485D01*
X185451995Y-108611727D01*
X185604880Y-108840535D01*
X185799465Y-109035120D01*
X186028273Y-109188005D01*
X186282510Y-109293314D01*
X186552408Y-109347000D01*
X186827592Y-109347000D01*
X187097490Y-109293314D01*
X187351727Y-109188005D01*
X187580535Y-109035120D01*
X187775120Y-108840535D01*
X187928005Y-108611727D01*
X188033314Y-108357490D01*
X188087000Y-108087592D01*
X188087000Y-107812408D01*
X188033314Y-107542510D01*
X187928005Y-107288273D01*
X187775120Y-107059465D01*
X187580535Y-106864880D01*
X187351727Y-106711995D01*
X187097490Y-106606686D01*
X186827592Y-106553000D01*
X186552408Y-106553000D01*
X186282510Y-106606686D01*
X186028273Y-106711995D01*
X185799465Y-106864880D01*
X185604880Y-107059465D01*
X185451995Y-107288273D01*
X185420000Y-107365515D01*
X185388005Y-107288273D01*
X185235120Y-107059465D01*
X185040535Y-106864880D01*
X184811727Y-106711995D01*
X184557490Y-106606686D01*
X184287592Y-106553000D01*
X184012408Y-106553000D01*
X183742510Y-106606686D01*
X183488273Y-106711995D01*
X183259465Y-106864880D01*
X183064880Y-107059465D01*
X182911995Y-107288273D01*
X182880000Y-107365515D01*
X182848005Y-107288273D01*
X182695120Y-107059465D01*
X182500535Y-106864880D01*
X182271727Y-106711995D01*
X182017490Y-106606686D01*
X181747592Y-106553000D01*
X181472408Y-106553000D01*
X181202510Y-106606686D01*
X180948273Y-106711995D01*
X180719465Y-106864880D01*
X180524880Y-107059465D01*
X180371995Y-107288273D01*
X180340000Y-107365515D01*
X180308005Y-107288273D01*
X180155120Y-107059465D01*
X179960535Y-106864880D01*
X179731727Y-106711995D01*
X179477490Y-106606686D01*
X179207592Y-106553000D01*
X178932408Y-106553000D01*
X178662510Y-106606686D01*
X178408273Y-106711995D01*
X178179465Y-106864880D01*
X177984880Y-107059465D01*
X177831995Y-107288273D01*
X177800000Y-107365515D01*
X177768005Y-107288273D01*
X177615120Y-107059465D01*
X177420535Y-106864880D01*
X177191727Y-106711995D01*
X176937490Y-106606686D01*
X176667592Y-106553000D01*
X176392408Y-106553000D01*
X176122510Y-106606686D01*
X175868273Y-106711995D01*
X175639465Y-106864880D01*
X175444880Y-107059465D01*
X175291995Y-107288273D01*
X175260000Y-107365515D01*
X175228005Y-107288273D01*
X175075120Y-107059465D01*
X174880535Y-106864880D01*
X174651727Y-106711995D01*
X174397490Y-106606686D01*
X174127592Y-106553000D01*
X173852408Y-106553000D01*
X173582510Y-106606686D01*
X173328273Y-106711995D01*
X173099465Y-106864880D01*
X172904880Y-107059465D01*
X172751995Y-107288273D01*
X172720000Y-107365515D01*
X172688005Y-107288273D01*
X172535120Y-107059465D01*
X172340535Y-106864880D01*
X172111727Y-106711995D01*
X171857490Y-106606686D01*
X171587592Y-106553000D01*
X171312408Y-106553000D01*
X171042510Y-106606686D01*
X170788273Y-106711995D01*
X170559465Y-106864880D01*
X170364880Y-107059465D01*
X170211995Y-107288273D01*
X170180000Y-107365515D01*
X170148005Y-107288273D01*
X169995120Y-107059465D01*
X169800535Y-106864880D01*
X169571727Y-106711995D01*
X169317490Y-106606686D01*
X169047592Y-106553000D01*
X168772408Y-106553000D01*
X168502510Y-106606686D01*
X168248273Y-106711995D01*
X168019465Y-106864880D01*
X167824880Y-107059465D01*
X167671995Y-107288273D01*
X167640000Y-107365515D01*
X167608005Y-107288273D01*
X167455120Y-107059465D01*
X167260535Y-106864880D01*
X167031727Y-106711995D01*
X166777490Y-106606686D01*
X166507592Y-106553000D01*
X166232408Y-106553000D01*
X165962510Y-106606686D01*
X165708273Y-106711995D01*
X165479465Y-106864880D01*
X165284880Y-107059465D01*
X165131995Y-107288273D01*
X165100000Y-107365515D01*
X165068005Y-107288273D01*
X164915120Y-107059465D01*
X164720535Y-106864880D01*
X164491727Y-106711995D01*
X164237490Y-106606686D01*
X163967592Y-106553000D01*
X163692408Y-106553000D01*
X163422510Y-106606686D01*
X163168273Y-106711995D01*
X162939465Y-106864880D01*
X162744880Y-107059465D01*
X162591995Y-107288273D01*
X162560000Y-107365515D01*
X162528005Y-107288273D01*
X162375120Y-107059465D01*
X162180535Y-106864880D01*
X161951727Y-106711995D01*
X161697490Y-106606686D01*
X161427592Y-106553000D01*
X161152408Y-106553000D01*
X160882510Y-106606686D01*
X160628273Y-106711995D01*
X160399465Y-106864880D01*
X160204880Y-107059465D01*
X160051995Y-107288273D01*
X160020000Y-107365515D01*
X159988005Y-107288273D01*
X159835120Y-107059465D01*
X159640535Y-106864880D01*
X159411727Y-106711995D01*
X159157490Y-106606686D01*
X158887592Y-106553000D01*
X158612408Y-106553000D01*
X158342510Y-106606686D01*
X158088273Y-106711995D01*
X157859465Y-106864880D01*
X157664880Y-107059465D01*
X157511995Y-107288273D01*
X157480000Y-107365515D01*
X157448005Y-107288273D01*
X157295120Y-107059465D01*
X157100535Y-106864880D01*
X156871727Y-106711995D01*
X156617490Y-106606686D01*
X156347592Y-106553000D01*
X156072408Y-106553000D01*
X155802510Y-106606686D01*
X155548273Y-106711995D01*
X155319465Y-106864880D01*
X155124880Y-107059465D01*
X154971995Y-107288273D01*
X154940000Y-107365515D01*
X154908005Y-107288273D01*
X154755120Y-107059465D01*
X154560535Y-106864880D01*
X154331727Y-106711995D01*
X154077490Y-106606686D01*
X153807592Y-106553000D01*
X153532408Y-106553000D01*
X153262510Y-106606686D01*
X153008273Y-106711995D01*
X152779465Y-106864880D01*
X152584880Y-107059465D01*
X152431995Y-107288273D01*
X152400000Y-107365515D01*
X152368005Y-107288273D01*
X152215120Y-107059465D01*
X152020535Y-106864880D01*
X151791727Y-106711995D01*
X151537490Y-106606686D01*
X151267592Y-106553000D01*
X150992408Y-106553000D01*
X150722510Y-106606686D01*
X150468273Y-106711995D01*
X150239465Y-106864880D01*
X150044880Y-107059465D01*
X149891995Y-107288273D01*
X149786686Y-107542510D01*
X149733000Y-107812408D01*
X149733000Y-108087592D01*
X149763159Y-108239211D01*
X148662148Y-109340222D01*
X148633078Y-109364079D01*
X148609221Y-109393149D01*
X148609220Y-109393150D01*
X148537854Y-109480109D01*
X148467098Y-109612486D01*
X148423526Y-109756123D01*
X148408813Y-109905501D01*
X148412500Y-109942934D01*
X148412499Y-127334869D01*
X143262000Y-122184370D01*
X143262000Y-112649579D01*
X143298254Y-112646008D01*
X143464850Y-112595472D01*
X143618386Y-112513405D01*
X143752962Y-112402962D01*
X143863405Y-112268386D01*
X143945472Y-112114850D01*
X143996008Y-111948254D01*
X144013072Y-111775000D01*
X144013072Y-111025000D01*
X143996008Y-110851746D01*
X143945472Y-110685150D01*
X143863405Y-110531614D01*
X143752962Y-110397038D01*
X143618386Y-110286595D01*
X143464850Y-110204528D01*
X143298254Y-110153992D01*
X143125000Y-110136928D01*
X141875000Y-110136928D01*
X141701746Y-110153992D01*
X141535150Y-110204528D01*
X141381614Y-110286595D01*
X141247038Y-110397038D01*
X141136595Y-110531614D01*
X141054528Y-110685150D01*
X141003992Y-110851746D01*
X140986928Y-111025000D01*
X140986928Y-111775000D01*
X141003992Y-111948254D01*
X141054528Y-112114850D01*
X141136595Y-112268386D01*
X141247038Y-112402962D01*
X141381614Y-112513405D01*
X141535150Y-112595472D01*
X141701746Y-112646008D01*
X141738001Y-112649579D01*
X141738000Y-122462577D01*
X141734314Y-122500000D01*
X141738000Y-122537423D01*
X141738000Y-122537425D01*
X141749026Y-122649377D01*
X141792598Y-122793014D01*
X141792599Y-122793015D01*
X141863355Y-122925392D01*
X141902983Y-122973678D01*
X141958578Y-123041422D01*
X141987654Y-123065284D01*
X148609216Y-129686846D01*
X148633077Y-129715921D01*
X148662153Y-129739783D01*
X148920500Y-129998130D01*
X148920500Y-130106321D01*
X148961985Y-130314878D01*
X149043360Y-130511335D01*
X149161498Y-130688141D01*
X149311859Y-130838502D01*
X149488665Y-130956640D01*
X149685122Y-131038015D01*
X149893679Y-131079500D01*
X150106321Y-131079500D01*
X150314878Y-131038015D01*
X150511335Y-130956640D01*
X150688141Y-130838502D01*
X150838502Y-130688141D01*
X150956640Y-130511335D01*
X151038015Y-130314878D01*
X151079500Y-130106321D01*
X151079500Y-129893679D01*
X151038015Y-129685122D01*
X150956640Y-129488665D01*
X150838502Y-129311859D01*
X150688141Y-129161498D01*
X150511335Y-129043360D01*
X150314878Y-128961985D01*
X150106321Y-128920500D01*
X149998130Y-128920500D01*
X149936499Y-128858869D01*
X149936499Y-121079500D01*
X150106321Y-121079500D01*
X150314878Y-121038015D01*
X150511335Y-120956640D01*
X150599860Y-120897490D01*
X154212994Y-124510625D01*
X154207832Y-124523088D01*
X154145000Y-124838967D01*
X154145000Y-125161033D01*
X154207832Y-125476912D01*
X154331082Y-125774463D01*
X154510013Y-126042252D01*
X154737748Y-126269987D01*
X155005537Y-126448918D01*
X155303088Y-126572168D01*
X155618967Y-126635000D01*
X155941033Y-126635000D01*
X156256912Y-126572168D01*
X156554463Y-126448918D01*
X156822252Y-126269987D01*
X157049987Y-126042252D01*
X157228918Y-125774463D01*
X157234080Y-125762000D01*
X157630415Y-125762000D01*
X157567832Y-125913088D01*
X157505000Y-126228967D01*
X157505000Y-126551033D01*
X157567832Y-126866912D01*
X157691082Y-127164463D01*
X157870013Y-127432252D01*
X158097748Y-127659987D01*
X158208429Y-127733941D01*
X151419211Y-134523159D01*
X151267592Y-134493000D01*
X150992408Y-134493000D01*
X150722510Y-134546686D01*
X150468273Y-134651995D01*
X150239465Y-134804880D01*
X150044880Y-134999465D01*
X149891995Y-135228273D01*
X149786686Y-135482510D01*
X149781618Y-135507987D01*
X139062000Y-124788370D01*
X139062000Y-119515630D01*
X139998131Y-118579500D01*
X140106321Y-118579500D01*
X140314878Y-118538015D01*
X140511335Y-118456640D01*
X140688141Y-118338502D01*
X140838502Y-118188141D01*
X140956640Y-118011335D01*
X141038015Y-117814878D01*
X141079500Y-117606321D01*
X141079500Y-117393679D01*
X141038015Y-117185122D01*
X140956640Y-116988665D01*
X140838502Y-116811859D01*
X140688141Y-116661498D01*
X140511335Y-116543360D01*
X140314878Y-116461985D01*
X140106321Y-116420500D01*
X139893679Y-116420500D01*
X139685122Y-116461985D01*
X139488665Y-116543360D01*
X139311859Y-116661498D01*
X139235357Y-116738000D01*
X137033423Y-116738000D01*
X136996000Y-116734314D01*
X136958577Y-116738000D01*
X136958574Y-116738000D01*
X136846622Y-116749026D01*
X136702985Y-116792598D01*
X136641364Y-116825535D01*
X136570607Y-116863355D01*
X136538141Y-116890000D01*
X136454578Y-116958578D01*
X136430716Y-116987654D01*
X133888072Y-119530298D01*
X133888072Y-117700000D01*
X133875812Y-117575518D01*
X133839502Y-117455820D01*
X133780537Y-117345506D01*
X133701185Y-117248815D01*
X133604494Y-117169463D01*
X133494180Y-117110498D01*
X133374482Y-117074188D01*
X133250000Y-117061928D01*
X129750000Y-117061928D01*
X129625518Y-117074188D01*
X129505820Y-117110498D01*
X129395506Y-117169463D01*
X129298815Y-117248815D01*
X129219463Y-117345506D01*
X129160498Y-117455820D01*
X129124188Y-117575518D01*
X129111928Y-117700000D01*
X120729730Y-117700000D01*
X120709961Y-110011417D01*
X120710130Y-110008595D01*
X120717711Y-109004704D01*
X120868484Y-108066821D01*
X121152671Y-107183411D01*
X121785623Y-107183411D01*
X121785623Y-107816589D01*
X121909150Y-108437599D01*
X122151456Y-109022578D01*
X122503230Y-109549046D01*
X122950954Y-109996770D01*
X123477422Y-110348544D01*
X124062401Y-110590850D01*
X124683411Y-110714377D01*
X125316589Y-110714377D01*
X125937599Y-110590850D01*
X126522578Y-110348544D01*
X127049046Y-109996770D01*
X127496770Y-109549046D01*
X127848544Y-109022578D01*
X128090850Y-108437599D01*
X128133138Y-108225000D01*
X140986928Y-108225000D01*
X140986928Y-108975000D01*
X141003992Y-109148254D01*
X141054528Y-109314850D01*
X141136595Y-109468386D01*
X141247038Y-109602962D01*
X141381614Y-109713405D01*
X141535150Y-109795472D01*
X141701746Y-109846008D01*
X141875000Y-109863072D01*
X143125000Y-109863072D01*
X143298254Y-109846008D01*
X143464850Y-109795472D01*
X143483091Y-109785722D01*
X144238000Y-110540631D01*
X144238001Y-111735356D01*
X144161498Y-111811859D01*
X144043360Y-111988665D01*
X143961985Y-112185122D01*
X143920500Y-112393679D01*
X143920500Y-112606321D01*
X143961985Y-112814878D01*
X144043360Y-113011335D01*
X144161498Y-113188141D01*
X144311859Y-113338502D01*
X144488665Y-113456640D01*
X144685122Y-113538015D01*
X144893679Y-113579500D01*
X145106321Y-113579500D01*
X145314878Y-113538015D01*
X145511335Y-113456640D01*
X145688141Y-113338502D01*
X145838502Y-113188141D01*
X145956640Y-113011335D01*
X146038015Y-112814878D01*
X146079500Y-112606321D01*
X146079500Y-112393679D01*
X146038015Y-112185122D01*
X145956640Y-111988665D01*
X145838502Y-111811859D01*
X145762000Y-111735357D01*
X145762000Y-110262422D01*
X145765686Y-110224999D01*
X145762000Y-110187574D01*
X145750974Y-110075622D01*
X145707402Y-109931985D01*
X145636645Y-109799608D01*
X145541422Y-109683578D01*
X145512353Y-109659722D01*
X144006019Y-108153389D01*
X143996008Y-108051746D01*
X143945472Y-107885150D01*
X143863405Y-107731614D01*
X143752962Y-107597038D01*
X143618386Y-107486595D01*
X143464850Y-107404528D01*
X143298254Y-107353992D01*
X143125000Y-107336928D01*
X141875000Y-107336928D01*
X141701746Y-107353992D01*
X141535150Y-107404528D01*
X141381614Y-107486595D01*
X141247038Y-107597038D01*
X141136595Y-107731614D01*
X141054528Y-107885150D01*
X141003992Y-108051746D01*
X140986928Y-108225000D01*
X128133138Y-108225000D01*
X128214377Y-107816589D01*
X128214377Y-107183411D01*
X128090850Y-106562401D01*
X127848544Y-105977422D01*
X127496770Y-105450954D01*
X127049046Y-105003230D01*
X126522578Y-104651456D01*
X125937599Y-104409150D01*
X125316589Y-104285623D01*
X124683411Y-104285623D01*
X124062401Y-104409150D01*
X123477422Y-104651456D01*
X122950954Y-105003230D01*
X122503230Y-105450954D01*
X122151456Y-105977422D01*
X121909150Y-106562401D01*
X121785623Y-107183411D01*
X121152671Y-107183411D01*
X121159384Y-107162546D01*
X121583721Y-106312673D01*
X122131726Y-105536765D01*
X122790791Y-104852677D01*
X123545748Y-104276151D01*
X124379226Y-103820451D01*
X125272044Y-103496069D01*
X126220129Y-103307185D01*
X126550844Y-103276696D01*
X192474627Y-103209956D01*
X193479921Y-103282898D01*
G37*
X193479921Y-103282898D02*
X194439310Y-103494712D01*
X195358078Y-103842801D01*
X196216970Y-104319873D01*
X196998000Y-104915937D01*
X197684801Y-105618500D01*
X198262993Y-106412852D01*
X198720456Y-107282347D01*
X199047612Y-108208774D01*
X199238388Y-109176698D01*
X199290070Y-110021693D01*
X199290071Y-134988055D01*
X199289870Y-134991405D01*
X199282289Y-135995296D01*
X199131516Y-136933179D01*
X198840617Y-137837451D01*
X198416279Y-138687327D01*
X197868274Y-139463235D01*
X197209212Y-140147320D01*
X196454252Y-140723849D01*
X195620769Y-141179551D01*
X194727958Y-141503931D01*
X193779871Y-141692815D01*
X193449156Y-141723304D01*
X127511730Y-141790058D01*
X127508595Y-141789870D01*
X126504704Y-141782289D01*
X125566821Y-141631516D01*
X124662549Y-141340617D01*
X123812673Y-140916279D01*
X123036765Y-140368274D01*
X122352680Y-139709212D01*
X121776151Y-138954252D01*
X121320449Y-138120769D01*
X120996069Y-137227958D01*
X120987195Y-137183411D01*
X121785623Y-137183411D01*
X121785623Y-137816589D01*
X121909150Y-138437599D01*
X122151456Y-139022578D01*
X122503230Y-139549046D01*
X122950954Y-139996770D01*
X123477422Y-140348544D01*
X124062401Y-140590850D01*
X124683411Y-140714377D01*
X125316589Y-140714377D01*
X125937599Y-140590850D01*
X126522578Y-140348544D01*
X127049046Y-139996770D01*
X127496770Y-139549046D01*
X127848544Y-139022578D01*
X128090850Y-138437599D01*
X128214377Y-137816589D01*
X128214377Y-137183411D01*
X128090850Y-136562401D01*
X127848544Y-135977422D01*
X127496770Y-135450954D01*
X127049046Y-135003230D01*
X126522578Y-134651456D01*
X125937599Y-134409150D01*
X125316589Y-134285623D01*
X124683411Y-134285623D01*
X124062401Y-134409150D01*
X123477422Y-134651456D01*
X122950954Y-135003230D01*
X122503230Y-135450954D01*
X122151456Y-135977422D01*
X121909150Y-136562401D01*
X121785623Y-137183411D01*
X120987195Y-137183411D01*
X120807185Y-136279871D01*
X120776646Y-135948611D01*
X120754411Y-127300000D01*
X128111928Y-127300000D01*
X128124188Y-127424482D01*
X128160498Y-127544180D01*
X128219463Y-127654494D01*
X128298815Y-127751185D01*
X128395506Y-127830537D01*
X128505820Y-127889502D01*
X128625518Y-127925812D01*
X128750000Y-127938072D01*
X130214250Y-127935000D01*
X130373000Y-127776250D01*
X130373000Y-126277000D01*
X130627000Y-126277000D01*
X130627000Y-127776250D01*
X130785750Y-127935000D01*
X132250000Y-127938072D01*
X132374482Y-127925812D01*
X132494180Y-127889502D01*
X132604494Y-127830537D01*
X132701185Y-127751185D01*
X132780537Y-127654494D01*
X132839502Y-127544180D01*
X132875812Y-127424482D01*
X132888072Y-127300000D01*
X132885000Y-126435750D01*
X132726250Y-126277000D01*
X130627000Y-126277000D01*
X130373000Y-126277000D01*
X128273750Y-126277000D01*
X128115000Y-126435750D01*
X128111928Y-127300000D01*
X120754411Y-127300000D01*
X120748498Y-125000000D01*
X128111928Y-125000000D01*
X128115000Y-125864250D01*
X128273750Y-126023000D01*
X130373000Y-126023000D01*
X130373000Y-124523750D01*
X130214250Y-124365000D01*
X128750000Y-124361928D01*
X128625518Y-124374188D01*
X128505820Y-124410498D01*
X128395506Y-124469463D01*
X128298815Y-124548815D01*
X128219463Y-124645506D01*
X128160498Y-124755820D01*
X128124188Y-124875518D01*
X128111928Y-125000000D01*
X120748498Y-125000000D01*
X120741707Y-122358665D01*
X123065000Y-122358665D01*
X123065000Y-122641335D01*
X123120147Y-122918574D01*
X123228320Y-123179727D01*
X123385363Y-123414759D01*
X123585241Y-123614637D01*
X123820273Y-123771680D01*
X124081426Y-123879853D01*
X124358665Y-123935000D01*
X124641335Y-123935000D01*
X124918574Y-123879853D01*
X125179727Y-123771680D01*
X125414759Y-123614637D01*
X125614637Y-123414759D01*
X125771680Y-123179727D01*
X125879853Y-122918574D01*
X125935000Y-122641335D01*
X125935000Y-122358665D01*
X128565000Y-122358665D01*
X128565000Y-122641335D01*
X128620147Y-122918574D01*
X128728320Y-123179727D01*
X128885363Y-123414759D01*
X129085241Y-123614637D01*
X129320273Y-123771680D01*
X129581426Y-123879853D01*
X129858665Y-123935000D01*
X130141335Y-123935000D01*
X130418574Y-123879853D01*
X130679727Y-123771680D01*
X130914759Y-123614637D01*
X131114637Y-123414759D01*
X131271680Y-123179727D01*
X131379853Y-122918574D01*
X131435000Y-122641335D01*
X131435000Y-122358665D01*
X131379853Y-122081426D01*
X131271680Y-121820273D01*
X131114637Y-121585241D01*
X130914759Y-121385363D01*
X130679727Y-121228320D01*
X130418574Y-121120147D01*
X130141335Y-121065000D01*
X129858665Y-121065000D01*
X129581426Y-121120147D01*
X129320273Y-121228320D01*
X129085241Y-121385363D01*
X128885363Y-121585241D01*
X128728320Y-121820273D01*
X128620147Y-122081426D01*
X128565000Y-122358665D01*
X125935000Y-122358665D01*
X125879853Y-122081426D01*
X125771680Y-121820273D01*
X125614637Y-121585241D01*
X125414759Y-121385363D01*
X125179727Y-121228320D01*
X124918574Y-121120147D01*
X124641335Y-121065000D01*
X124358665Y-121065000D01*
X124081426Y-121120147D01*
X123820273Y-121228320D01*
X123585241Y-121385363D01*
X123385363Y-121585241D01*
X123228320Y-121820273D01*
X123120147Y-122081426D01*
X123065000Y-122358665D01*
X120741707Y-122358665D01*
X120729730Y-117700000D01*
X129111928Y-117700000D01*
X129111928Y-120000000D01*
X129124188Y-120124482D01*
X129160498Y-120244180D01*
X129219463Y-120354494D01*
X129298815Y-120451185D01*
X129395506Y-120530537D01*
X129505820Y-120589502D01*
X129625518Y-120625812D01*
X129750000Y-120638072D01*
X132329749Y-120638072D01*
X132255820Y-120660498D01*
X132145506Y-120719463D01*
X132048815Y-120798815D01*
X131969463Y-120895506D01*
X131910498Y-121005820D01*
X131874188Y-121125518D01*
X131861928Y-121250000D01*
X131861928Y-123750000D01*
X131874188Y-123874482D01*
X131910498Y-123994180D01*
X131969463Y-124104494D01*
X132048815Y-124201185D01*
X132145506Y-124280537D01*
X132255820Y-124339502D01*
X132368089Y-124373558D01*
X132250000Y-124361928D01*
X130785750Y-124365000D01*
X130627000Y-124523750D01*
X130627000Y-126023000D01*
X132726250Y-126023000D01*
X132885000Y-125864250D01*
X132888072Y-125000000D01*
X132875812Y-124875518D01*
X132839502Y-124755820D01*
X132780537Y-124645506D01*
X132701185Y-124548815D01*
X132604494Y-124469463D01*
X132494180Y-124410498D01*
X132381911Y-124376442D01*
X132500000Y-124388072D01*
X134500000Y-124388072D01*
X134624482Y-124375812D01*
X134744180Y-124339502D01*
X134854494Y-124280537D01*
X134951185Y-124201185D01*
X135030537Y-124104494D01*
X135089502Y-123994180D01*
X135125812Y-123874482D01*
X135138072Y-123750000D01*
X135138072Y-121250000D01*
X135125812Y-121125518D01*
X135089502Y-121005820D01*
X135030537Y-120895506D01*
X134951185Y-120798815D01*
X134854494Y-120719463D01*
X134854281Y-120719349D01*
X137311630Y-118262000D01*
X138160370Y-118262000D01*
X137787654Y-118634716D01*
X137758578Y-118658578D01*
X137702983Y-118726322D01*
X137663355Y-118774608D01*
X137645124Y-118808716D01*
X137592598Y-118906986D01*
X137549026Y-119050623D01*
X137542235Y-119119579D01*
X137534314Y-119200000D01*
X137538000Y-119237423D01*
X137538001Y-123162574D01*
X137538000Y-125066576D01*
X137534314Y-125104000D01*
X137538000Y-125141423D01*
X137538000Y-125141425D01*
X137549026Y-125253377D01*
X137592598Y-125397014D01*
X137625535Y-125458635D01*
X137663355Y-125529392D01*
X137692807Y-125565279D01*
X137758578Y-125645422D01*
X137787654Y-125669284D01*
X149663722Y-137545353D01*
X149687579Y-137574423D01*
X149716649Y-137598280D01*
X149803608Y-137669646D01*
X149814482Y-137675458D01*
X149935986Y-137740403D01*
X150079623Y-137783975D01*
X150191575Y-137795001D01*
X150191578Y-137795001D01*
X150229001Y-137798687D01*
X150266424Y-137795001D01*
X185509576Y-137795001D01*
X185546999Y-137798687D01*
X185584422Y-137795001D01*
X185584425Y-137795001D01*
X185696377Y-137783975D01*
X185840014Y-137740403D01*
X185972391Y-137669646D01*
X186088421Y-137574423D01*
X186112283Y-137545347D01*
X186400789Y-137256841D01*
X186552408Y-137287000D01*
X186827592Y-137287000D01*
X187097490Y-137233314D01*
X187351727Y-137128005D01*
X187580535Y-136975120D01*
X187775120Y-136780535D01*
X187928005Y-136551727D01*
X188033314Y-136297490D01*
X188087000Y-136027592D01*
X188087000Y-135752408D01*
X188033314Y-135482510D01*
X187928005Y-135228273D01*
X187775120Y-134999465D01*
X187580535Y-134804880D01*
X187351727Y-134651995D01*
X187097490Y-134546686D01*
X186827592Y-134493000D01*
X186552408Y-134493000D01*
X186282510Y-134546686D01*
X186028273Y-134651995D01*
X185799465Y-134804880D01*
X185604880Y-134999465D01*
X185451995Y-135228273D01*
X185422308Y-135299943D01*
X185417636Y-135286977D01*
X185355656Y-135171020D01*
X185115565Y-135104040D01*
X184329605Y-135890000D01*
X184343748Y-135904143D01*
X184164143Y-136083748D01*
X184150000Y-136069605D01*
X184135858Y-136083748D01*
X183956253Y-135904143D01*
X183970395Y-135890000D01*
X183184435Y-135104040D01*
X182944344Y-135171020D01*
X182880515Y-135306760D01*
X182848005Y-135228273D01*
X182695120Y-134999465D01*
X182620090Y-134924435D01*
X183364040Y-134924435D01*
X184150000Y-135710395D01*
X184935960Y-134924435D01*
X184868980Y-134684344D01*
X184619952Y-134567244D01*
X184352865Y-134500977D01*
X184077983Y-134488090D01*
X183805867Y-134529078D01*
X183546977Y-134622364D01*
X183431020Y-134684344D01*
X183364040Y-134924435D01*
X182620090Y-134924435D01*
X182500535Y-134804880D01*
X182271727Y-134651995D01*
X182017490Y-134546686D01*
X181747592Y-134493000D01*
X181472408Y-134493000D01*
X181202510Y-134546686D01*
X180948273Y-134651995D01*
X180719465Y-134804880D01*
X180524880Y-134999465D01*
X180371995Y-135228273D01*
X180340000Y-135305515D01*
X180308005Y-135228273D01*
X180155120Y-134999465D01*
X179960535Y-134804880D01*
X179731727Y-134651995D01*
X179477490Y-134546686D01*
X179207592Y-134493000D01*
X178932408Y-134493000D01*
X178662510Y-134546686D01*
X178408273Y-134651995D01*
X178179465Y-134804880D01*
X177984880Y-134999465D01*
X177831995Y-135228273D01*
X177800000Y-135305515D01*
X177768005Y-135228273D01*
X177615120Y-134999465D01*
X177420535Y-134804880D01*
X177191727Y-134651995D01*
X176937490Y-134546686D01*
X176667592Y-134493000D01*
X176392408Y-134493000D01*
X176122510Y-134546686D01*
X175868273Y-134651995D01*
X175639465Y-134804880D01*
X175444880Y-134999465D01*
X175291995Y-135228273D01*
X175262308Y-135299943D01*
X175257636Y-135286977D01*
X175195656Y-135171020D01*
X174955565Y-135104040D01*
X174169605Y-135890000D01*
X174183748Y-135904143D01*
X174004143Y-136083748D01*
X173990000Y-136069605D01*
X173975858Y-136083748D01*
X173796253Y-135904143D01*
X173810395Y-135890000D01*
X173024435Y-135104040D01*
X172784344Y-135171020D01*
X172720515Y-135306760D01*
X172688005Y-135228273D01*
X172535120Y-134999465D01*
X172460090Y-134924435D01*
X173204040Y-134924435D01*
X173990000Y-135710395D01*
X174775960Y-134924435D01*
X174708980Y-134684344D01*
X174459952Y-134567244D01*
X174192865Y-134500977D01*
X173917983Y-134488090D01*
X173645867Y-134529078D01*
X173386977Y-134622364D01*
X173271020Y-134684344D01*
X173204040Y-134924435D01*
X172460090Y-134924435D01*
X172340535Y-134804880D01*
X172111727Y-134651995D01*
X171857490Y-134546686D01*
X171587592Y-134493000D01*
X171312408Y-134493000D01*
X171042510Y-134546686D01*
X170788273Y-134651995D01*
X170559465Y-134804880D01*
X170364880Y-134999465D01*
X170211995Y-135228273D01*
X170180000Y-135305515D01*
X170148005Y-135228273D01*
X169995120Y-134999465D01*
X169800535Y-134804880D01*
X169571727Y-134651995D01*
X169317490Y-134546686D01*
X169047592Y-134493000D01*
X168772408Y-134493000D01*
X168502510Y-134546686D01*
X168248273Y-134651995D01*
X168019465Y-134804880D01*
X167824880Y-134999465D01*
X167671995Y-135228273D01*
X167640000Y-135305515D01*
X167608005Y-135228273D01*
X167455120Y-134999465D01*
X167260535Y-134804880D01*
X167031727Y-134651995D01*
X166777490Y-134546686D01*
X166507592Y-134493000D01*
X166232408Y-134493000D01*
X165962510Y-134546686D01*
X165708273Y-134651995D01*
X165479465Y-134804880D01*
X165284880Y-134999465D01*
X165131995Y-135228273D01*
X165100000Y-135305515D01*
X165068005Y-135228273D01*
X164915120Y-134999465D01*
X164720535Y-134804880D01*
X164491727Y-134651995D01*
X164237490Y-134546686D01*
X163967592Y-134493000D01*
X163692408Y-134493000D01*
X163422510Y-134546686D01*
X163168273Y-134651995D01*
X162939465Y-134804880D01*
X162744880Y-134999465D01*
X162591995Y-135228273D01*
X162560000Y-135305515D01*
X162528005Y-135228273D01*
X162375120Y-134999465D01*
X162180535Y-134804880D01*
X161951727Y-134651995D01*
X161697490Y-134546686D01*
X161427592Y-134493000D01*
X161152408Y-134493000D01*
X160882510Y-134546686D01*
X160628273Y-134651995D01*
X160399465Y-134804880D01*
X160204880Y-134999465D01*
X160051995Y-135228273D01*
X160020000Y-135305515D01*
X159988005Y-135228273D01*
X159835120Y-134999465D01*
X159640535Y-134804880D01*
X159411727Y-134651995D01*
X159157490Y-134546686D01*
X158887592Y-134493000D01*
X158612408Y-134493000D01*
X158342510Y-134546686D01*
X158088273Y-134651995D01*
X157859465Y-134804880D01*
X157664880Y-134999465D01*
X157511995Y-135228273D01*
X157480000Y-135305515D01*
X157448005Y-135228273D01*
X157295120Y-134999465D01*
X157100535Y-134804880D01*
X156871727Y-134651995D01*
X156617490Y-134546686D01*
X156347592Y-134493000D01*
X156072408Y-134493000D01*
X155802510Y-134546686D01*
X155548273Y-134651995D01*
X155319465Y-134804880D01*
X155124880Y-134999465D01*
X154971995Y-135228273D01*
X154940000Y-135305515D01*
X154908005Y-135228273D01*
X154755120Y-134999465D01*
X154560535Y-134804880D01*
X154331727Y-134651995D01*
X154077490Y-134546686D01*
X153807592Y-134493000D01*
X153604630Y-134493000D01*
X159652346Y-128445284D01*
X159681422Y-128421422D01*
X159741857Y-128347781D01*
X159776645Y-128305393D01*
X159847401Y-128173016D01*
X159847402Y-128173015D01*
X159890974Y-128029378D01*
X159902000Y-127917426D01*
X159902000Y-127917423D01*
X159905686Y-127880000D01*
X159902142Y-127844021D01*
X159914463Y-127838918D01*
X160182252Y-127659987D01*
X160409987Y-127432252D01*
X160588918Y-127164463D01*
X160594080Y-127152000D01*
X163758379Y-127152000D01*
X163795802Y-127155686D01*
X163833225Y-127152000D01*
X163833228Y-127152000D01*
X163945180Y-127140974D01*
X164088817Y-127097402D01*
X164221194Y-127026645D01*
X164337224Y-126931422D01*
X164361088Y-126902344D01*
X164393344Y-126870088D01*
X164422423Y-126846223D01*
X164517646Y-126730193D01*
X164588403Y-126597816D01*
X164631975Y-126454179D01*
X164643001Y-126342227D01*
X164643001Y-126342224D01*
X164646687Y-126304801D01*
X164643001Y-126267378D01*
X164643001Y-122183411D01*
X191785623Y-122183411D01*
X191785623Y-122816589D01*
X191909150Y-123437599D01*
X192151456Y-124022578D01*
X192503230Y-124549046D01*
X192950954Y-124996770D01*
X193477422Y-125348544D01*
X194062401Y-125590850D01*
X194683411Y-125714377D01*
X195316589Y-125714377D01*
X195937599Y-125590850D01*
X196522578Y-125348544D01*
X197049046Y-124996770D01*
X197496770Y-124549046D01*
X197848544Y-124022578D01*
X198090850Y-123437599D01*
X198214377Y-122816589D01*
X198214377Y-122183411D01*
X198090850Y-121562401D01*
X197848544Y-120977422D01*
X197496770Y-120450954D01*
X197049046Y-120003230D01*
X196522578Y-119651456D01*
X195937599Y-119409150D01*
X195316589Y-119285623D01*
X194683411Y-119285623D01*
X194062401Y-119409150D01*
X193477422Y-119651456D01*
X192950954Y-120003230D01*
X192503230Y-120450954D01*
X192151456Y-120977422D01*
X191909150Y-121562401D01*
X191785623Y-122183411D01*
X164643001Y-122183411D01*
X164643001Y-119698423D01*
X164646687Y-119661000D01*
X164635753Y-119549987D01*
X164631975Y-119511623D01*
X164588403Y-119367986D01*
X164517646Y-119235609D01*
X164422423Y-119119579D01*
X164393354Y-119095723D01*
X164067006Y-118769375D01*
X164072168Y-118756912D01*
X164135000Y-118441033D01*
X164135000Y-118118967D01*
X164072168Y-117803088D01*
X163948918Y-117505537D01*
X163769987Y-117237748D01*
X163542252Y-117010013D01*
X163274463Y-116831082D01*
X162976912Y-116707832D01*
X162661033Y-116645000D01*
X162338967Y-116645000D01*
X162023088Y-116707832D01*
X161725537Y-116831082D01*
X161457748Y-117010013D01*
X161230013Y-117237748D01*
X161051082Y-117505537D01*
X161045920Y-117518000D01*
X160649585Y-117518000D01*
X160712168Y-117366912D01*
X160775000Y-117051033D01*
X160775000Y-116728967D01*
X160712168Y-116413088D01*
X160588918Y-116115537D01*
X160409987Y-115847748D01*
X160182252Y-115620013D01*
X159914463Y-115441082D01*
X159616912Y-115317832D01*
X159301033Y-115255000D01*
X158978967Y-115255000D01*
X158663088Y-115317832D01*
X158365537Y-115441082D01*
X158097748Y-115620013D01*
X157870013Y-115847748D01*
X157691082Y-116115537D01*
X157685920Y-116128000D01*
X155163541Y-116128000D01*
X155126118Y-116124314D01*
X155088695Y-116128000D01*
X155088692Y-116128000D01*
X154976740Y-116139026D01*
X154833103Y-116182598D01*
X154771482Y-116215535D01*
X154700725Y-116253355D01*
X154658337Y-116288143D01*
X154584696Y-116348578D01*
X154560834Y-116377654D01*
X151987654Y-118950834D01*
X151958578Y-118974696D01*
X151903344Y-119042000D01*
X151863355Y-119090726D01*
X151847933Y-119119579D01*
X151833121Y-119147291D01*
X151811859Y-119161498D01*
X151661498Y-119311859D01*
X151543360Y-119488665D01*
X151485641Y-119628011D01*
X151345284Y-119487654D01*
X151321422Y-119458578D01*
X151205392Y-119363355D01*
X151073015Y-119292598D01*
X150929378Y-119249026D01*
X150817426Y-119238000D01*
X150817423Y-119238000D01*
X150780000Y-119234314D01*
X150762664Y-119236021D01*
X150688141Y-119161498D01*
X150511335Y-119043360D01*
X150314878Y-118961985D01*
X150106321Y-118920500D01*
X149936499Y-118920500D01*
X149936499Y-110221131D01*
X150840789Y-109316841D01*
X150992408Y-109347000D01*
X151267592Y-109347000D01*
X151537490Y-109293314D01*
X151791727Y-109188005D01*
X152020535Y-109035120D01*
X152215120Y-108840535D01*
X152368005Y-108611727D01*
X152400000Y-108534485D01*
X152431995Y-108611727D01*
X152584880Y-108840535D01*
X152779465Y-109035120D01*
X153008273Y-109188005D01*
X153262510Y-109293314D01*
X153532408Y-109347000D01*
X153807592Y-109347000D01*
X154077490Y-109293314D01*
X154331727Y-109188005D01*
X154560535Y-109035120D01*
X154755120Y-108840535D01*
X154908005Y-108611727D01*
X154940000Y-108534485D01*
X154971995Y-108611727D01*
X155124880Y-108840535D01*
X155319465Y-109035120D01*
X155548273Y-109188005D01*
X155802510Y-109293314D01*
X156072408Y-109347000D01*
X156347592Y-109347000D01*
X156617490Y-109293314D01*
X156871727Y-109188005D01*
X157100535Y-109035120D01*
X157295120Y-108840535D01*
X157448005Y-108611727D01*
X157480000Y-108534485D01*
X157511995Y-108611727D01*
X157664880Y-108840535D01*
X157859465Y-109035120D01*
X158088273Y-109188005D01*
X158342510Y-109293314D01*
X158612408Y-109347000D01*
X158887592Y-109347000D01*
X159157490Y-109293314D01*
X159411727Y-109188005D01*
X159640535Y-109035120D01*
X159835120Y-108840535D01*
X159988005Y-108611727D01*
X160020000Y-108534485D01*
X160051995Y-108611727D01*
X160204880Y-108840535D01*
X160399465Y-109035120D01*
X160628273Y-109188005D01*
X160882510Y-109293314D01*
X161152408Y-109347000D01*
X161427592Y-109347000D01*
X161697490Y-109293314D01*
X161951727Y-109188005D01*
X162180535Y-109035120D01*
X162375120Y-108840535D01*
X162528005Y-108611727D01*
X162560000Y-108534485D01*
X162591995Y-108611727D01*
X162744880Y-108840535D01*
X162939465Y-109035120D01*
X163168273Y-109188005D01*
X163422510Y-109293314D01*
X163692408Y-109347000D01*
X163967592Y-109347000D01*
X164237490Y-109293314D01*
X164491727Y-109188005D01*
X164720535Y-109035120D01*
X164915120Y-108840535D01*
X165068005Y-108611727D01*
X165100000Y-108534485D01*
X165131995Y-108611727D01*
X165284880Y-108840535D01*
X165479465Y-109035120D01*
X165708273Y-109188005D01*
X165962510Y-109293314D01*
X166232408Y-109347000D01*
X166507592Y-109347000D01*
X166777490Y-109293314D01*
X167031727Y-109188005D01*
X167260535Y-109035120D01*
X167455120Y-108840535D01*
X167608005Y-108611727D01*
X167640000Y-108534485D01*
X167671995Y-108611727D01*
X167824880Y-108840535D01*
X168019465Y-109035120D01*
X168248273Y-109188005D01*
X168502510Y-109293314D01*
X168772408Y-109347000D01*
X169047592Y-109347000D01*
X169317490Y-109293314D01*
X169571727Y-109188005D01*
X169800535Y-109035120D01*
X169995120Y-108840535D01*
X170148005Y-108611727D01*
X170180000Y-108534485D01*
X170211995Y-108611727D01*
X170364880Y-108840535D01*
X170559465Y-109035120D01*
X170788273Y-109188005D01*
X171042510Y-109293314D01*
X171312408Y-109347000D01*
X171587592Y-109347000D01*
X171857490Y-109293314D01*
X172111727Y-109188005D01*
X172340535Y-109035120D01*
X172535120Y-108840535D01*
X172688005Y-108611727D01*
X172720000Y-108534485D01*
X172751995Y-108611727D01*
X172904880Y-108840535D01*
X173099465Y-109035120D01*
X173328273Y-109188005D01*
X173582510Y-109293314D01*
X173852408Y-109347000D01*
X174127592Y-109347000D01*
X174397490Y-109293314D01*
X174651727Y-109188005D01*
X174880535Y-109035120D01*
X175075120Y-108840535D01*
X175228005Y-108611727D01*
X175260000Y-108534485D01*
X175291995Y-108611727D01*
X175444880Y-108840535D01*
X175639465Y-109035120D01*
X175868273Y-109188005D01*
X176122510Y-109293314D01*
X176392408Y-109347000D01*
X176667592Y-109347000D01*
X176937490Y-109293314D01*
X177191727Y-109188005D01*
X177420535Y-109035120D01*
X177615120Y-108840535D01*
X177768005Y-108611727D01*
X177800000Y-108534485D01*
X177831995Y-108611727D01*
X177984880Y-108840535D01*
X178179465Y-109035120D01*
X178408273Y-109188005D01*
X178662510Y-109293314D01*
X178932408Y-109347000D01*
X179207592Y-109347000D01*
X179477490Y-109293314D01*
X179731727Y-109188005D01*
X179960535Y-109035120D01*
X180155120Y-108840535D01*
X180308005Y-108611727D01*
X180340000Y-108534485D01*
X180371995Y-108611727D01*
X180524880Y-108840535D01*
X180719465Y-109035120D01*
X180948273Y-109188005D01*
X181202510Y-109293314D01*
X181472408Y-109347000D01*
X181747592Y-109347000D01*
X182017490Y-109293314D01*
X182271727Y-109188005D01*
X182500535Y-109035120D01*
X182695120Y-108840535D01*
X182848005Y-108611727D01*
X182880000Y-108534485D01*
X182911995Y-108611727D01*
X183064880Y-108840535D01*
X183259465Y-109035120D01*
X183488273Y-109188005D01*
X183742510Y-109293314D01*
X184012408Y-109347000D01*
X184287592Y-109347000D01*
X184557490Y-109293314D01*
X184811727Y-109188005D01*
X185040535Y-109035120D01*
X185235120Y-108840535D01*
X185388005Y-108611727D01*
X185420000Y-108534485D01*
X185451995Y-108611727D01*
X185604880Y-108840535D01*
X185799465Y-109035120D01*
X186028273Y-109188005D01*
X186282510Y-109293314D01*
X186552408Y-109347000D01*
X186827592Y-109347000D01*
X187097490Y-109293314D01*
X187351727Y-109188005D01*
X187580535Y-109035120D01*
X187775120Y-108840535D01*
X187928005Y-108611727D01*
X188033314Y-108357490D01*
X188087000Y-108087592D01*
X188087000Y-107812408D01*
X188033314Y-107542510D01*
X187928005Y-107288273D01*
X187775120Y-107059465D01*
X187580535Y-106864880D01*
X187351727Y-106711995D01*
X187097490Y-106606686D01*
X186827592Y-106553000D01*
X186552408Y-106553000D01*
X186282510Y-106606686D01*
X186028273Y-106711995D01*
X185799465Y-106864880D01*
X185604880Y-107059465D01*
X185451995Y-107288273D01*
X185420000Y-107365515D01*
X185388005Y-107288273D01*
X185235120Y-107059465D01*
X185040535Y-106864880D01*
X184811727Y-106711995D01*
X184557490Y-106606686D01*
X184287592Y-106553000D01*
X184012408Y-106553000D01*
X183742510Y-106606686D01*
X183488273Y-106711995D01*
X183259465Y-106864880D01*
X183064880Y-107059465D01*
X182911995Y-107288273D01*
X182880000Y-107365515D01*
X182848005Y-107288273D01*
X182695120Y-107059465D01*
X182500535Y-106864880D01*
X182271727Y-106711995D01*
X182017490Y-106606686D01*
X181747592Y-106553000D01*
X181472408Y-106553000D01*
X181202510Y-106606686D01*
X180948273Y-106711995D01*
X180719465Y-106864880D01*
X180524880Y-107059465D01*
X180371995Y-107288273D01*
X180340000Y-107365515D01*
X180308005Y-107288273D01*
X180155120Y-107059465D01*
X179960535Y-106864880D01*
X179731727Y-106711995D01*
X179477490Y-106606686D01*
X179207592Y-106553000D01*
X178932408Y-106553000D01*
X178662510Y-106606686D01*
X178408273Y-106711995D01*
X178179465Y-106864880D01*
X177984880Y-107059465D01*
X177831995Y-107288273D01*
X177800000Y-107365515D01*
X177768005Y-107288273D01*
X177615120Y-107059465D01*
X177420535Y-106864880D01*
X177191727Y-106711995D01*
X176937490Y-106606686D01*
X176667592Y-106553000D01*
X176392408Y-106553000D01*
X176122510Y-106606686D01*
X175868273Y-106711995D01*
X175639465Y-106864880D01*
X175444880Y-107059465D01*
X175291995Y-107288273D01*
X175260000Y-107365515D01*
X175228005Y-107288273D01*
X175075120Y-107059465D01*
X174880535Y-106864880D01*
X174651727Y-106711995D01*
X174397490Y-106606686D01*
X174127592Y-106553000D01*
X173852408Y-106553000D01*
X173582510Y-106606686D01*
X173328273Y-106711995D01*
X173099465Y-106864880D01*
X172904880Y-107059465D01*
X172751995Y-107288273D01*
X172720000Y-107365515D01*
X172688005Y-107288273D01*
X172535120Y-107059465D01*
X172340535Y-106864880D01*
X172111727Y-106711995D01*
X171857490Y-106606686D01*
X171587592Y-106553000D01*
X171312408Y-106553000D01*
X171042510Y-106606686D01*
X170788273Y-106711995D01*
X170559465Y-106864880D01*
X170364880Y-107059465D01*
X170211995Y-107288273D01*
X170180000Y-107365515D01*
X170148005Y-107288273D01*
X169995120Y-107059465D01*
X169800535Y-106864880D01*
X169571727Y-106711995D01*
X169317490Y-106606686D01*
X169047592Y-106553000D01*
X168772408Y-106553000D01*
X168502510Y-106606686D01*
X168248273Y-106711995D01*
X168019465Y-106864880D01*
X167824880Y-107059465D01*
X167671995Y-107288273D01*
X167640000Y-107365515D01*
X167608005Y-107288273D01*
X167455120Y-107059465D01*
X167260535Y-106864880D01*
X167031727Y-106711995D01*
X166777490Y-106606686D01*
X166507592Y-106553000D01*
X166232408Y-106553000D01*
X165962510Y-106606686D01*
X165708273Y-106711995D01*
X165479465Y-106864880D01*
X165284880Y-107059465D01*
X165131995Y-107288273D01*
X165100000Y-107365515D01*
X165068005Y-107288273D01*
X164915120Y-107059465D01*
X164720535Y-106864880D01*
X164491727Y-106711995D01*
X164237490Y-106606686D01*
X163967592Y-106553000D01*
X163692408Y-106553000D01*
X163422510Y-106606686D01*
X163168273Y-106711995D01*
X162939465Y-106864880D01*
X162744880Y-107059465D01*
X162591995Y-107288273D01*
X162560000Y-107365515D01*
X162528005Y-107288273D01*
X162375120Y-107059465D01*
X162180535Y-106864880D01*
X161951727Y-106711995D01*
X161697490Y-106606686D01*
X161427592Y-106553000D01*
X161152408Y-106553000D01*
X160882510Y-106606686D01*
X160628273Y-106711995D01*
X160399465Y-106864880D01*
X160204880Y-107059465D01*
X160051995Y-107288273D01*
X160020000Y-107365515D01*
X159988005Y-107288273D01*
X159835120Y-107059465D01*
X159640535Y-106864880D01*
X159411727Y-106711995D01*
X159157490Y-106606686D01*
X158887592Y-106553000D01*
X158612408Y-106553000D01*
X158342510Y-106606686D01*
X158088273Y-106711995D01*
X157859465Y-106864880D01*
X157664880Y-107059465D01*
X157511995Y-107288273D01*
X157480000Y-107365515D01*
X157448005Y-107288273D01*
X157295120Y-107059465D01*
X157100535Y-106864880D01*
X156871727Y-106711995D01*
X156617490Y-106606686D01*
X156347592Y-106553000D01*
X156072408Y-106553000D01*
X155802510Y-106606686D01*
X155548273Y-106711995D01*
X155319465Y-106864880D01*
X155124880Y-107059465D01*
X154971995Y-107288273D01*
X154940000Y-107365515D01*
X154908005Y-107288273D01*
X154755120Y-107059465D01*
X154560535Y-106864880D01*
X154331727Y-106711995D01*
X154077490Y-106606686D01*
X153807592Y-106553000D01*
X153532408Y-106553000D01*
X153262510Y-106606686D01*
X153008273Y-106711995D01*
X152779465Y-106864880D01*
X152584880Y-107059465D01*
X152431995Y-107288273D01*
X152400000Y-107365515D01*
X152368005Y-107288273D01*
X152215120Y-107059465D01*
X152020535Y-106864880D01*
X151791727Y-106711995D01*
X151537490Y-106606686D01*
X151267592Y-106553000D01*
X150992408Y-106553000D01*
X150722510Y-106606686D01*
X150468273Y-106711995D01*
X150239465Y-106864880D01*
X150044880Y-107059465D01*
X149891995Y-107288273D01*
X149786686Y-107542510D01*
X149733000Y-107812408D01*
X149733000Y-108087592D01*
X149763159Y-108239211D01*
X148662148Y-109340222D01*
X148633078Y-109364079D01*
X148609221Y-109393149D01*
X148609220Y-109393150D01*
X148537854Y-109480109D01*
X148467098Y-109612486D01*
X148423526Y-109756123D01*
X148408813Y-109905501D01*
X148412500Y-109942934D01*
X148412499Y-127334869D01*
X143262000Y-122184370D01*
X143262000Y-112649579D01*
X143298254Y-112646008D01*
X143464850Y-112595472D01*
X143618386Y-112513405D01*
X143752962Y-112402962D01*
X143863405Y-112268386D01*
X143945472Y-112114850D01*
X143996008Y-111948254D01*
X144013072Y-111775000D01*
X144013072Y-111025000D01*
X143996008Y-110851746D01*
X143945472Y-110685150D01*
X143863405Y-110531614D01*
X143752962Y-110397038D01*
X143618386Y-110286595D01*
X143464850Y-110204528D01*
X143298254Y-110153992D01*
X143125000Y-110136928D01*
X141875000Y-110136928D01*
X141701746Y-110153992D01*
X141535150Y-110204528D01*
X141381614Y-110286595D01*
X141247038Y-110397038D01*
X141136595Y-110531614D01*
X141054528Y-110685150D01*
X141003992Y-110851746D01*
X140986928Y-111025000D01*
X140986928Y-111775000D01*
X141003992Y-111948254D01*
X141054528Y-112114850D01*
X141136595Y-112268386D01*
X141247038Y-112402962D01*
X141381614Y-112513405D01*
X141535150Y-112595472D01*
X141701746Y-112646008D01*
X141738001Y-112649579D01*
X141738000Y-122462577D01*
X141734314Y-122500000D01*
X141738000Y-122537423D01*
X141738000Y-122537425D01*
X141749026Y-122649377D01*
X141792598Y-122793014D01*
X141792599Y-122793015D01*
X141863355Y-122925392D01*
X141902983Y-122973678D01*
X141958578Y-123041422D01*
X141987654Y-123065284D01*
X148609216Y-129686846D01*
X148633077Y-129715921D01*
X148662153Y-129739783D01*
X148920500Y-129998130D01*
X148920500Y-130106321D01*
X148961985Y-130314878D01*
X149043360Y-130511335D01*
X149161498Y-130688141D01*
X149311859Y-130838502D01*
X149488665Y-130956640D01*
X149685122Y-131038015D01*
X149893679Y-131079500D01*
X150106321Y-131079500D01*
X150314878Y-131038015D01*
X150511335Y-130956640D01*
X150688141Y-130838502D01*
X150838502Y-130688141D01*
X150956640Y-130511335D01*
X151038015Y-130314878D01*
X151079500Y-130106321D01*
X151079500Y-129893679D01*
X151038015Y-129685122D01*
X150956640Y-129488665D01*
X150838502Y-129311859D01*
X150688141Y-129161498D01*
X150511335Y-129043360D01*
X150314878Y-128961985D01*
X150106321Y-128920500D01*
X149998130Y-128920500D01*
X149936499Y-128858869D01*
X149936499Y-121079500D01*
X150106321Y-121079500D01*
X150314878Y-121038015D01*
X150511335Y-120956640D01*
X150599860Y-120897490D01*
X154212994Y-124510625D01*
X154207832Y-124523088D01*
X154145000Y-124838967D01*
X154145000Y-125161033D01*
X154207832Y-125476912D01*
X154331082Y-125774463D01*
X154510013Y-126042252D01*
X154737748Y-126269987D01*
X155005537Y-126448918D01*
X155303088Y-126572168D01*
X155618967Y-126635000D01*
X155941033Y-126635000D01*
X156256912Y-126572168D01*
X156554463Y-126448918D01*
X156822252Y-126269987D01*
X157049987Y-126042252D01*
X157228918Y-125774463D01*
X157234080Y-125762000D01*
X157630415Y-125762000D01*
X157567832Y-125913088D01*
X157505000Y-126228967D01*
X157505000Y-126551033D01*
X157567832Y-126866912D01*
X157691082Y-127164463D01*
X157870013Y-127432252D01*
X158097748Y-127659987D01*
X158208429Y-127733941D01*
X151419211Y-134523159D01*
X151267592Y-134493000D01*
X150992408Y-134493000D01*
X150722510Y-134546686D01*
X150468273Y-134651995D01*
X150239465Y-134804880D01*
X150044880Y-134999465D01*
X149891995Y-135228273D01*
X149786686Y-135482510D01*
X149781618Y-135507987D01*
X139062000Y-124788370D01*
X139062000Y-119515630D01*
X139998131Y-118579500D01*
X140106321Y-118579500D01*
X140314878Y-118538015D01*
X140511335Y-118456640D01*
X140688141Y-118338502D01*
X140838502Y-118188141D01*
X140956640Y-118011335D01*
X141038015Y-117814878D01*
X141079500Y-117606321D01*
X141079500Y-117393679D01*
X141038015Y-117185122D01*
X140956640Y-116988665D01*
X140838502Y-116811859D01*
X140688141Y-116661498D01*
X140511335Y-116543360D01*
X140314878Y-116461985D01*
X140106321Y-116420500D01*
X139893679Y-116420500D01*
X139685122Y-116461985D01*
X139488665Y-116543360D01*
X139311859Y-116661498D01*
X139235357Y-116738000D01*
X137033423Y-116738000D01*
X136996000Y-116734314D01*
X136958577Y-116738000D01*
X136958574Y-116738000D01*
X136846622Y-116749026D01*
X136702985Y-116792598D01*
X136641364Y-116825535D01*
X136570607Y-116863355D01*
X136538141Y-116890000D01*
X136454578Y-116958578D01*
X136430716Y-116987654D01*
X133888072Y-119530298D01*
X133888072Y-117700000D01*
X133875812Y-117575518D01*
X133839502Y-117455820D01*
X133780537Y-117345506D01*
X133701185Y-117248815D01*
X133604494Y-117169463D01*
X133494180Y-117110498D01*
X133374482Y-117074188D01*
X133250000Y-117061928D01*
X129750000Y-117061928D01*
X129625518Y-117074188D01*
X129505820Y-117110498D01*
X129395506Y-117169463D01*
X129298815Y-117248815D01*
X129219463Y-117345506D01*
X129160498Y-117455820D01*
X129124188Y-117575518D01*
X129111928Y-117700000D01*
X120729730Y-117700000D01*
X120709961Y-110011417D01*
X120710130Y-110008595D01*
X120717711Y-109004704D01*
X120868484Y-108066821D01*
X121152671Y-107183411D01*
X121785623Y-107183411D01*
X121785623Y-107816589D01*
X121909150Y-108437599D01*
X122151456Y-109022578D01*
X122503230Y-109549046D01*
X122950954Y-109996770D01*
X123477422Y-110348544D01*
X124062401Y-110590850D01*
X124683411Y-110714377D01*
X125316589Y-110714377D01*
X125937599Y-110590850D01*
X126522578Y-110348544D01*
X127049046Y-109996770D01*
X127496770Y-109549046D01*
X127848544Y-109022578D01*
X128090850Y-108437599D01*
X128133138Y-108225000D01*
X140986928Y-108225000D01*
X140986928Y-108975000D01*
X141003992Y-109148254D01*
X141054528Y-109314850D01*
X141136595Y-109468386D01*
X141247038Y-109602962D01*
X141381614Y-109713405D01*
X141535150Y-109795472D01*
X141701746Y-109846008D01*
X141875000Y-109863072D01*
X143125000Y-109863072D01*
X143298254Y-109846008D01*
X143464850Y-109795472D01*
X143483091Y-109785722D01*
X144238000Y-110540631D01*
X144238001Y-111735356D01*
X144161498Y-111811859D01*
X144043360Y-111988665D01*
X143961985Y-112185122D01*
X143920500Y-112393679D01*
X143920500Y-112606321D01*
X143961985Y-112814878D01*
X144043360Y-113011335D01*
X144161498Y-113188141D01*
X144311859Y-113338502D01*
X144488665Y-113456640D01*
X144685122Y-113538015D01*
X144893679Y-113579500D01*
X145106321Y-113579500D01*
X145314878Y-113538015D01*
X145511335Y-113456640D01*
X145688141Y-113338502D01*
X145838502Y-113188141D01*
X145956640Y-113011335D01*
X146038015Y-112814878D01*
X146079500Y-112606321D01*
X146079500Y-112393679D01*
X146038015Y-112185122D01*
X145956640Y-111988665D01*
X145838502Y-111811859D01*
X145762000Y-111735357D01*
X145762000Y-110262422D01*
X145765686Y-110224999D01*
X145762000Y-110187574D01*
X145750974Y-110075622D01*
X145707402Y-109931985D01*
X145636645Y-109799608D01*
X145541422Y-109683578D01*
X145512353Y-109659722D01*
X144006019Y-108153389D01*
X143996008Y-108051746D01*
X143945472Y-107885150D01*
X143863405Y-107731614D01*
X143752962Y-107597038D01*
X143618386Y-107486595D01*
X143464850Y-107404528D01*
X143298254Y-107353992D01*
X143125000Y-107336928D01*
X141875000Y-107336928D01*
X141701746Y-107353992D01*
X141535150Y-107404528D01*
X141381614Y-107486595D01*
X141247038Y-107597038D01*
X141136595Y-107731614D01*
X141054528Y-107885150D01*
X141003992Y-108051746D01*
X140986928Y-108225000D01*
X128133138Y-108225000D01*
X128214377Y-107816589D01*
X128214377Y-107183411D01*
X128090850Y-106562401D01*
X127848544Y-105977422D01*
X127496770Y-105450954D01*
X127049046Y-105003230D01*
X126522578Y-104651456D01*
X125937599Y-104409150D01*
X125316589Y-104285623D01*
X124683411Y-104285623D01*
X124062401Y-104409150D01*
X123477422Y-104651456D01*
X122950954Y-105003230D01*
X122503230Y-105450954D01*
X122151456Y-105977422D01*
X121909150Y-106562401D01*
X121785623Y-107183411D01*
X121152671Y-107183411D01*
X121159384Y-107162546D01*
X121583721Y-106312673D01*
X122131726Y-105536765D01*
X122790791Y-104852677D01*
X123545748Y-104276151D01*
X124379226Y-103820451D01*
X125272044Y-103496069D01*
X126220129Y-103307185D01*
X126550844Y-103276696D01*
X192474627Y-103209956D01*
X193479921Y-103282898D01*
M02*
