M48
; DRILL file {KiCad 5.1.5-52549c5~86~ubuntu18.04.1} date Wed 06 May 2020 11:13:37 AM EDT
; FORMAT={-:-/ absolute / inch / decimal}
; #@! TF.CreationDate,2020-05-06T11:13:37-04:00
; #@! TF.GenerationSoftware,Kicad,Pcbnew,5.1.5-52549c5~86~ubuntu18.04.1
FMAT,2
INCH
T1C0.0250
T2C0.0300
T3C0.0394
T4C0.0630
%
G90
G05
T1
X5.5118Y-4.626
X5.7087Y-4.4291
X5.9055Y-4.7244
X5.9055Y-5.1181
X6.0039Y-4.7244
T2
X5.2165Y-5.3165
X5.3181Y-4.3339
X5.3165Y-5.4165
X5.4181Y-4.3339
X5.2165Y-5.2165
X5.1181Y-4.3339
X5.4181Y-4.1339
X5.2181Y-4.2339
X5.1181Y-4.1339
X5.2165Y-5.5165
X5.95Y-4.25
X5.95Y-5.35
X6.05Y-4.25
X6.05Y-5.35
X6.15Y-4.25
X6.15Y-5.35
X6.25Y-4.25
X6.25Y-5.35
X6.35Y-4.25
X6.35Y-5.35
X6.45Y-4.25
X6.45Y-5.35
X6.55Y-4.25
X6.55Y-5.35
X6.65Y-4.25
X6.65Y-5.35
X6.75Y-4.25
X6.75Y-5.35
X6.85Y-4.25
X6.85Y-5.35
X6.95Y-4.25
X6.95Y-5.35
X7.05Y-4.25
X7.05Y-5.35
X7.15Y-4.25
X7.15Y-5.35
X7.25Y-4.25
X7.25Y-5.35
X7.35Y-4.25
X7.35Y-5.35
X5.4165Y-5.3165
X5.3165Y-5.5165
X5.5165Y-5.3165
X5.5165Y-5.2165
X5.3181Y-4.2339
X5.2165Y-5.4165
X5.4165Y-5.5165
X5.1181Y-4.2339
X5.5165Y-5.5165
X5.2181Y-4.3339
X5.4181Y-4.4339
X5.5165Y-5.4165
X5.3181Y-4.4339
X5.3165Y-5.3165
X5.4165Y-5.2165
X5.3181Y-4.1339
X5.1181Y-4.4339
X5.3165Y-5.2165
X5.4181Y-4.2339
X5.2181Y-4.4339
X5.4165Y-5.4165
X5.2181Y-4.1339
T3
X6.1331Y-4.6567
X6.1331Y-4.9213
X6.2654Y-4.602
X6.2654Y-4.976
X6.3976Y-4.6567
X6.3976Y-4.9213
T4
X4.9016Y-4.8228
X5.1181Y-4.8228
T0
M30
