G04 #@! TF.GenerationSoftware,KiCad,Pcbnew,5.1.5-52549c5~86~ubuntu18.04.1*
G04 #@! TF.CreationDate,2020-05-06T11:13:41-04:00*
G04 #@! TF.ProjectId,co_sensor,636f5f73-656e-4736-9f72-2e6b69636164,1.0*
G04 #@! TF.SameCoordinates,Original*
G04 #@! TF.FileFunction,Legend,Top*
G04 #@! TF.FilePolarity,Positive*
%FSLAX46Y46*%
G04 Gerber Fmt 4.6, Leading zero omitted, Abs format (unit mm)*
G04 Created by KiCad (PCBNEW 5.1.5-52549c5~86~ubuntu18.04.1) date 2020-05-06 11:13:41*
%MOMM*%
%LPD*%
G04 APERTURE LIST*
%ADD10C,0.165100*%
%ADD11C,0.127000*%
%ADD12C,0.400000*%
%ADD13C,0.120000*%
%ADD14C,0.150000*%
%ADD15C,0.015000*%
G04 APERTURE END LIST*
D10*
X145509007Y-139451964D02*
X145699628Y-139451964D01*
X145794939Y-139499620D01*
X145890249Y-139594930D01*
X145937904Y-139785551D01*
X145937904Y-140119138D01*
X145890249Y-140309759D01*
X145794939Y-140405069D01*
X145699628Y-140452724D01*
X145509007Y-140452724D01*
X145413697Y-140405069D01*
X145318386Y-140309759D01*
X145270731Y-140119138D01*
X145270731Y-139785551D01*
X145318386Y-139594930D01*
X145413697Y-139499620D01*
X145509007Y-139451964D01*
X146366801Y-139785551D02*
X146366801Y-140786311D01*
X146366801Y-139833206D02*
X146462112Y-139785551D01*
X146652733Y-139785551D01*
X146748043Y-139833206D01*
X146795699Y-139880861D01*
X146843354Y-139976172D01*
X146843354Y-140262103D01*
X146795699Y-140357414D01*
X146748043Y-140405069D01*
X146652733Y-140452724D01*
X146462112Y-140452724D01*
X146366801Y-140405069D01*
X147653493Y-140405069D02*
X147558182Y-140452724D01*
X147367561Y-140452724D01*
X147272251Y-140405069D01*
X147224596Y-140309759D01*
X147224596Y-139928517D01*
X147272251Y-139833206D01*
X147367561Y-139785551D01*
X147558182Y-139785551D01*
X147653493Y-139833206D01*
X147701148Y-139928517D01*
X147701148Y-140023827D01*
X147224596Y-140119138D01*
X148130045Y-139785551D02*
X148130045Y-140452724D01*
X148130045Y-139880861D02*
X148177700Y-139833206D01*
X148273011Y-139785551D01*
X148415977Y-139785551D01*
X148511287Y-139833206D01*
X148558942Y-139928517D01*
X148558942Y-140452724D01*
X149750323Y-140405069D02*
X149893289Y-140452724D01*
X150131565Y-140452724D01*
X150226876Y-140405069D01*
X150274531Y-140357414D01*
X150322186Y-140262103D01*
X150322186Y-140166793D01*
X150274531Y-140071482D01*
X150226876Y-140023827D01*
X150131565Y-139976172D01*
X149940944Y-139928517D01*
X149845634Y-139880861D01*
X149797979Y-139833206D01*
X149750323Y-139737896D01*
X149750323Y-139642585D01*
X149797979Y-139547275D01*
X149845634Y-139499620D01*
X149940944Y-139451964D01*
X150179220Y-139451964D01*
X150322186Y-139499620D01*
X150894049Y-140452724D02*
X150798739Y-140405069D01*
X150751083Y-140357414D01*
X150703428Y-140262103D01*
X150703428Y-139976172D01*
X150751083Y-139880861D01*
X150798739Y-139833206D01*
X150894049Y-139785551D01*
X151037015Y-139785551D01*
X151132325Y-139833206D01*
X151179980Y-139880861D01*
X151227636Y-139976172D01*
X151227636Y-140262103D01*
X151179980Y-140357414D01*
X151132325Y-140405069D01*
X151037015Y-140452724D01*
X150894049Y-140452724D01*
X152085430Y-139785551D02*
X152085430Y-140452724D01*
X151656533Y-139785551D02*
X151656533Y-140309759D01*
X151704188Y-140405069D01*
X151799499Y-140452724D01*
X151942464Y-140452724D01*
X152037775Y-140405069D01*
X152085430Y-140357414D01*
X152561982Y-140452724D02*
X152561982Y-139785551D01*
X152561982Y-139976172D02*
X152609638Y-139880861D01*
X152657293Y-139833206D01*
X152752603Y-139785551D01*
X152847914Y-139785551D01*
X153610398Y-140405069D02*
X153515087Y-140452724D01*
X153324466Y-140452724D01*
X153229156Y-140405069D01*
X153181500Y-140357414D01*
X153133845Y-140262103D01*
X153133845Y-139976172D01*
X153181500Y-139880861D01*
X153229156Y-139833206D01*
X153324466Y-139785551D01*
X153515087Y-139785551D01*
X153610398Y-139833206D01*
X154420537Y-140405069D02*
X154325226Y-140452724D01*
X154134605Y-140452724D01*
X154039295Y-140405069D01*
X153991640Y-140309759D01*
X153991640Y-139928517D01*
X154039295Y-139833206D01*
X154134605Y-139785551D01*
X154325226Y-139785551D01*
X154420537Y-139833206D01*
X154468192Y-139928517D01*
X154468192Y-140023827D01*
X153991640Y-140119138D01*
X156231436Y-140357414D02*
X156183780Y-140405069D01*
X156040815Y-140452724D01*
X155945504Y-140452724D01*
X155802539Y-140405069D01*
X155707228Y-140309759D01*
X155659573Y-140214448D01*
X155611918Y-140023827D01*
X155611918Y-139880861D01*
X155659573Y-139690240D01*
X155707228Y-139594930D01*
X155802539Y-139499620D01*
X155945504Y-139451964D01*
X156040815Y-139451964D01*
X156183780Y-139499620D01*
X156231436Y-139547275D01*
X156850954Y-139451964D02*
X157041575Y-139451964D01*
X157136885Y-139499620D01*
X157232196Y-139594930D01*
X157279851Y-139785551D01*
X157279851Y-140119138D01*
X157232196Y-140309759D01*
X157136885Y-140405069D01*
X157041575Y-140452724D01*
X156850954Y-140452724D01*
X156755643Y-140405069D01*
X156660333Y-140309759D01*
X156612678Y-140119138D01*
X156612678Y-139785551D01*
X156660333Y-139594930D01*
X156755643Y-139499620D01*
X156850954Y-139451964D01*
X158423577Y-140405069D02*
X158566542Y-140452724D01*
X158804819Y-140452724D01*
X158900129Y-140405069D01*
X158947784Y-140357414D01*
X158995440Y-140262103D01*
X158995440Y-140166793D01*
X158947784Y-140071482D01*
X158900129Y-140023827D01*
X158804819Y-139976172D01*
X158614198Y-139928517D01*
X158518887Y-139880861D01*
X158471232Y-139833206D01*
X158423577Y-139737896D01*
X158423577Y-139642585D01*
X158471232Y-139547275D01*
X158518887Y-139499620D01*
X158614198Y-139451964D01*
X158852474Y-139451964D01*
X158995440Y-139499620D01*
X159805579Y-140405069D02*
X159710268Y-140452724D01*
X159519647Y-140452724D01*
X159424337Y-140405069D01*
X159376681Y-140309759D01*
X159376681Y-139928517D01*
X159424337Y-139833206D01*
X159519647Y-139785551D01*
X159710268Y-139785551D01*
X159805579Y-139833206D01*
X159853234Y-139928517D01*
X159853234Y-140023827D01*
X159376681Y-140119138D01*
X160282131Y-139785551D02*
X160282131Y-140452724D01*
X160282131Y-139880861D02*
X160329786Y-139833206D01*
X160425097Y-139785551D01*
X160568062Y-139785551D01*
X160663373Y-139833206D01*
X160711028Y-139928517D01*
X160711028Y-140452724D01*
X161139925Y-140405069D02*
X161235236Y-140452724D01*
X161425857Y-140452724D01*
X161521167Y-140405069D01*
X161568822Y-140309759D01*
X161568822Y-140262103D01*
X161521167Y-140166793D01*
X161425857Y-140119138D01*
X161282891Y-140119138D01*
X161187580Y-140071482D01*
X161139925Y-139976172D01*
X161139925Y-139928517D01*
X161187580Y-139833206D01*
X161282891Y-139785551D01*
X161425857Y-139785551D01*
X161521167Y-139833206D01*
X162140685Y-140452724D02*
X162045375Y-140405069D01*
X161997720Y-140357414D01*
X161950064Y-140262103D01*
X161950064Y-139976172D01*
X161997720Y-139880861D01*
X162045375Y-139833206D01*
X162140685Y-139785551D01*
X162283651Y-139785551D01*
X162378961Y-139833206D01*
X162426617Y-139880861D01*
X162474272Y-139976172D01*
X162474272Y-140262103D01*
X162426617Y-140357414D01*
X162378961Y-140405069D01*
X162283651Y-140452724D01*
X162140685Y-140452724D01*
X162903169Y-140452724D02*
X162903169Y-139785551D01*
X162903169Y-139976172D02*
X162950824Y-139880861D01*
X162998480Y-139833206D01*
X163093790Y-139785551D01*
X163189100Y-139785551D01*
X164285171Y-140071482D02*
X165047655Y-140071482D01*
X166191380Y-139785551D02*
X166429657Y-140452724D01*
X166667933Y-139785551D01*
X167239796Y-139451964D02*
X167335106Y-139451964D01*
X167430417Y-139499620D01*
X167478072Y-139547275D01*
X167525727Y-139642585D01*
X167573382Y-139833206D01*
X167573382Y-140071482D01*
X167525727Y-140262103D01*
X167478072Y-140357414D01*
X167430417Y-140405069D01*
X167335106Y-140452724D01*
X167239796Y-140452724D01*
X167144485Y-140405069D01*
X167096830Y-140357414D01*
X167049175Y-140262103D01*
X167001520Y-140071482D01*
X167001520Y-139833206D01*
X167049175Y-139642585D01*
X167096830Y-139547275D01*
X167144485Y-139499620D01*
X167239796Y-139451964D01*
X168002280Y-140357414D02*
X168049935Y-140405069D01*
X168002280Y-140452724D01*
X167954624Y-140405069D01*
X168002280Y-140357414D01*
X168002280Y-140452724D01*
X169003040Y-140452724D02*
X168431177Y-140452724D01*
X168717108Y-140452724D02*
X168717108Y-139451964D01*
X168621798Y-139594930D01*
X168526487Y-139690240D01*
X168431177Y-139737896D01*
X170432697Y-140786311D02*
X170432697Y-139356654D01*
X171767043Y-139451964D02*
X172100630Y-140452724D01*
X172434217Y-139451964D01*
X172767803Y-140452724D02*
X172767803Y-139785551D01*
X172767803Y-139451964D02*
X172720148Y-139499620D01*
X172767803Y-139547275D01*
X172815459Y-139499620D01*
X172767803Y-139451964D01*
X172767803Y-139547275D01*
X173244356Y-139785551D02*
X173244356Y-140452724D01*
X173244356Y-139880861D02*
X173292011Y-139833206D01*
X173387321Y-139785551D01*
X173530287Y-139785551D01*
X173625598Y-139833206D01*
X173673253Y-139928517D01*
X173673253Y-140452724D01*
X174578702Y-140405069D02*
X174483392Y-140452724D01*
X174292771Y-140452724D01*
X174197460Y-140405069D01*
X174149805Y-140357414D01*
X174102150Y-140262103D01*
X174102150Y-139976172D01*
X174149805Y-139880861D01*
X174197460Y-139833206D01*
X174292771Y-139785551D01*
X174483392Y-139785551D01*
X174578702Y-139833206D01*
X175388841Y-140405069D02*
X175293531Y-140452724D01*
X175102910Y-140452724D01*
X175007600Y-140405069D01*
X174959944Y-140309759D01*
X174959944Y-139928517D01*
X175007600Y-139833206D01*
X175102910Y-139785551D01*
X175293531Y-139785551D01*
X175388841Y-139833206D01*
X175436497Y-139928517D01*
X175436497Y-140023827D01*
X174959944Y-140119138D01*
X175865394Y-139785551D02*
X175865394Y-140452724D01*
X175865394Y-139880861D02*
X175913049Y-139833206D01*
X176008360Y-139785551D01*
X176151325Y-139785551D01*
X176246636Y-139833206D01*
X176294291Y-139928517D01*
X176294291Y-140452724D01*
X176627878Y-139785551D02*
X177009120Y-139785551D01*
X176770843Y-139451964D02*
X176770843Y-140309759D01*
X176818499Y-140405069D01*
X176913809Y-140452724D01*
X177009120Y-140452724D01*
X178105190Y-140452724D02*
X178105190Y-139451964D01*
X178438777Y-140166793D01*
X178772363Y-139451964D01*
X178772363Y-140452724D01*
X179391881Y-140452724D02*
X179296571Y-140405069D01*
X179248916Y-140357414D01*
X179201260Y-140262103D01*
X179201260Y-139976172D01*
X179248916Y-139880861D01*
X179296571Y-139833206D01*
X179391881Y-139785551D01*
X179534847Y-139785551D01*
X179630158Y-139833206D01*
X179677813Y-139880861D01*
X179725468Y-139976172D01*
X179725468Y-140262103D01*
X179677813Y-140357414D01*
X179630158Y-140405069D01*
X179534847Y-140452724D01*
X179391881Y-140452724D01*
X180535607Y-140405069D02*
X180440297Y-140452724D01*
X180249676Y-140452724D01*
X180154365Y-140405069D01*
X180106710Y-140309759D01*
X180106710Y-139928517D01*
X180154365Y-139833206D01*
X180249676Y-139785551D01*
X180440297Y-139785551D01*
X180535607Y-139833206D01*
X180583262Y-139928517D01*
X180583262Y-140023827D01*
X180106710Y-140119138D01*
X180916849Y-139785551D02*
X181155125Y-140452724D01*
X181393401Y-139785551D02*
X181155125Y-140452724D01*
X181059815Y-140691000D01*
X181012160Y-140738656D01*
X180916849Y-140786311D01*
X181774643Y-140452724D02*
X181774643Y-139451964D01*
X181869954Y-140071482D02*
X182155885Y-140452724D01*
X182155885Y-139785551D02*
X181774643Y-140166793D01*
X182966024Y-140405069D02*
X182870714Y-140452724D01*
X182680093Y-140452724D01*
X182584782Y-140405069D01*
X182537127Y-140309759D01*
X182537127Y-139928517D01*
X182584782Y-139833206D01*
X182680093Y-139785551D01*
X182870714Y-139785551D01*
X182966024Y-139833206D01*
X183013680Y-139928517D01*
X183013680Y-140023827D01*
X182537127Y-140119138D01*
X183442577Y-139785551D02*
X183442577Y-140452724D01*
X183442577Y-139880861D02*
X183490232Y-139833206D01*
X183585542Y-139785551D01*
X183728508Y-139785551D01*
X183823819Y-139833206D01*
X183871474Y-139928517D01*
X183871474Y-140452724D01*
X184300371Y-140405069D02*
X184395681Y-140452724D01*
X184586302Y-140452724D01*
X184681613Y-140405069D01*
X184729268Y-140309759D01*
X184729268Y-140262103D01*
X184681613Y-140166793D01*
X184586302Y-140119138D01*
X184443337Y-140119138D01*
X184348026Y-140071482D01*
X184300371Y-139976172D01*
X184300371Y-139928517D01*
X184348026Y-139833206D01*
X184443337Y-139785551D01*
X184586302Y-139785551D01*
X184681613Y-139833206D01*
D11*
X132500000Y-125000000D02*
X133500000Y-125000000D01*
X133500000Y-124000000D02*
X133500000Y-125000000D01*
X133500000Y-120250000D02*
X133500000Y-121000000D01*
X129500000Y-120000000D02*
X121500000Y-120000000D01*
X121500000Y-125000000D02*
X128250000Y-125000000D01*
X121500000Y-120000000D02*
X121500000Y-125000000D01*
D12*
X135500000Y-122510000D02*
G75*
G03X135500000Y-122510000I-200000J0D01*
G01*
D13*
X143635000Y-112285000D02*
X143635000Y-108400000D01*
X141365000Y-112285000D02*
X143635000Y-112285000D01*
X141365000Y-108400000D02*
X141365000Y-112285000D01*
D14*
X144780000Y-107950000D02*
X144780000Y-135890000D01*
X149116051Y-109220000D02*
G75*
G03X149116051Y-109220000I-1796051J0D01*
G01*
X149116051Y-134620000D02*
G75*
G03X149116051Y-134620000I-1796051J0D01*
G01*
X192296051Y-134620000D02*
G75*
G03X192296051Y-134620000I-1796051J0D01*
G01*
X192296051Y-109220000D02*
G75*
G03X192296051Y-109220000I-1796051J0D01*
G01*
X193040000Y-125720000D02*
X193040000Y-135890000D01*
X146050000Y-137160000D02*
X191770000Y-137160000D01*
X146050000Y-106680000D02*
X191770000Y-106680000D01*
X191770000Y-137160000D02*
G75*
G03X193040000Y-135890000I0J1270000D01*
G01*
X193040000Y-107950000D02*
G75*
G03X191770000Y-106680000I-1270000J0D01*
G01*
X146050000Y-106680000D02*
G75*
G03X144780000Y-107950000I0J-1270000D01*
G01*
X144780000Y-135890000D02*
G75*
G03X146050000Y-137160000I1270000J0D01*
G01*
X194040000Y-118120000D02*
X194040000Y-125720000D01*
X188310000Y-118120000D02*
X194040000Y-118120000D01*
X188310000Y-125720000D02*
X188310000Y-118120000D01*
X194040000Y-125720000D02*
X188310000Y-125720000D01*
X151910000Y-127420000D02*
X144780000Y-127420000D01*
X144780000Y-116420000D02*
X151910000Y-116420000D01*
X151910000Y-116420000D02*
X151910000Y-127420000D01*
X193040000Y-107940000D02*
X193040000Y-118110000D01*
D15*
X124359086Y-118183823D02*
X124359086Y-118898699D01*
X124311427Y-119041674D01*
X124216110Y-119136991D01*
X124073135Y-119184650D01*
X123977818Y-119184650D01*
X125359913Y-119184650D02*
X124788011Y-119184650D01*
X125073962Y-119184650D02*
X125073962Y-118183823D01*
X124978645Y-118326798D01*
X124883328Y-118422115D01*
X124788011Y-118469773D01*
D14*
X141132380Y-110738095D02*
X140132380Y-110738095D01*
X140132380Y-110500000D01*
X140180000Y-110357142D01*
X140275238Y-110261904D01*
X140370476Y-110214285D01*
X140560952Y-110166666D01*
X140703809Y-110166666D01*
X140894285Y-110214285D01*
X140989523Y-110261904D01*
X141084761Y-110357142D01*
X141132380Y-110500000D01*
X141132380Y-110738095D01*
X141132380Y-109214285D02*
X141132380Y-109785714D01*
X141132380Y-109500000D02*
X140132380Y-109500000D01*
X140275238Y-109595238D01*
X140370476Y-109690476D01*
X140418095Y-109785714D01*
X168362380Y-122681904D02*
X169171904Y-122681904D01*
X169267142Y-122634285D01*
X169314761Y-122586666D01*
X169362380Y-122491428D01*
X169362380Y-122300952D01*
X169314761Y-122205714D01*
X169267142Y-122158095D01*
X169171904Y-122110476D01*
X168362380Y-122110476D01*
X169362380Y-121110476D02*
X169362380Y-121681904D01*
X169362380Y-121396190D02*
X168362380Y-121396190D01*
X168505238Y-121491428D01*
X168600476Y-121586666D01*
X168648095Y-121681904D01*
X151582380Y-111228095D02*
X150582380Y-111228095D01*
X150582380Y-110990000D01*
X150630000Y-110847142D01*
X150725238Y-110751904D01*
X150820476Y-110704285D01*
X151010952Y-110656666D01*
X151153809Y-110656666D01*
X151344285Y-110704285D01*
X151439523Y-110751904D01*
X151534761Y-110847142D01*
X151582380Y-110990000D01*
X151582380Y-111228095D01*
X150582380Y-110037619D02*
X150582380Y-109942380D01*
X150630000Y-109847142D01*
X150677619Y-109799523D01*
X150772857Y-109751904D01*
X150963333Y-109704285D01*
X151201428Y-109704285D01*
X151391904Y-109751904D01*
X151487142Y-109799523D01*
X151534761Y-109847142D01*
X151582380Y-109942380D01*
X151582380Y-110037619D01*
X151534761Y-110132857D01*
X151487142Y-110180476D01*
X151391904Y-110228095D01*
X151201428Y-110275714D01*
X150963333Y-110275714D01*
X150772857Y-110228095D01*
X150677619Y-110180476D01*
X150630000Y-110132857D01*
X150582380Y-110037619D01*
X154122380Y-111228095D02*
X153122380Y-111228095D01*
X153122380Y-110990000D01*
X153170000Y-110847142D01*
X153265238Y-110751904D01*
X153360476Y-110704285D01*
X153550952Y-110656666D01*
X153693809Y-110656666D01*
X153884285Y-110704285D01*
X153979523Y-110751904D01*
X154074761Y-110847142D01*
X154122380Y-110990000D01*
X154122380Y-111228095D01*
X154122380Y-109704285D02*
X154122380Y-110275714D01*
X154122380Y-109990000D02*
X153122380Y-109990000D01*
X153265238Y-110085238D01*
X153360476Y-110180476D01*
X153408095Y-110275714D01*
X156662380Y-111228095D02*
X155662380Y-111228095D01*
X155662380Y-110990000D01*
X155710000Y-110847142D01*
X155805238Y-110751904D01*
X155900476Y-110704285D01*
X156090952Y-110656666D01*
X156233809Y-110656666D01*
X156424285Y-110704285D01*
X156519523Y-110751904D01*
X156614761Y-110847142D01*
X156662380Y-110990000D01*
X156662380Y-111228095D01*
X155757619Y-110275714D02*
X155710000Y-110228095D01*
X155662380Y-110132857D01*
X155662380Y-109894761D01*
X155710000Y-109799523D01*
X155757619Y-109751904D01*
X155852857Y-109704285D01*
X155948095Y-109704285D01*
X156090952Y-109751904D01*
X156662380Y-110323333D01*
X156662380Y-109704285D01*
X159202380Y-111228095D02*
X158202380Y-111228095D01*
X158202380Y-110990000D01*
X158250000Y-110847142D01*
X158345238Y-110751904D01*
X158440476Y-110704285D01*
X158630952Y-110656666D01*
X158773809Y-110656666D01*
X158964285Y-110704285D01*
X159059523Y-110751904D01*
X159154761Y-110847142D01*
X159202380Y-110990000D01*
X159202380Y-111228095D01*
X158202380Y-110323333D02*
X158202380Y-109704285D01*
X158583333Y-110037619D01*
X158583333Y-109894761D01*
X158630952Y-109799523D01*
X158678571Y-109751904D01*
X158773809Y-109704285D01*
X159011904Y-109704285D01*
X159107142Y-109751904D01*
X159154761Y-109799523D01*
X159202380Y-109894761D01*
X159202380Y-110180476D01*
X159154761Y-110275714D01*
X159107142Y-110323333D01*
X161742380Y-111228095D02*
X160742380Y-111228095D01*
X160742380Y-110990000D01*
X160790000Y-110847142D01*
X160885238Y-110751904D01*
X160980476Y-110704285D01*
X161170952Y-110656666D01*
X161313809Y-110656666D01*
X161504285Y-110704285D01*
X161599523Y-110751904D01*
X161694761Y-110847142D01*
X161742380Y-110990000D01*
X161742380Y-111228095D01*
X161075714Y-109799523D02*
X161742380Y-109799523D01*
X160694761Y-110037619D02*
X161409047Y-110275714D01*
X161409047Y-109656666D01*
X163282380Y-111251904D02*
X163282380Y-110632857D01*
X163663333Y-110966190D01*
X163663333Y-110823333D01*
X163710952Y-110728095D01*
X163758571Y-110680476D01*
X163853809Y-110632857D01*
X164091904Y-110632857D01*
X164187142Y-110680476D01*
X164234761Y-110728095D01*
X164282380Y-110823333D01*
X164282380Y-111109047D01*
X164234761Y-111204285D01*
X164187142Y-111251904D01*
X163282380Y-110347142D02*
X164282380Y-110013809D01*
X163282380Y-109680476D01*
X165870000Y-110228095D02*
X165822380Y-110323333D01*
X165822380Y-110466190D01*
X165870000Y-110609047D01*
X165965238Y-110704285D01*
X166060476Y-110751904D01*
X166250952Y-110799523D01*
X166393809Y-110799523D01*
X166584285Y-110751904D01*
X166679523Y-110704285D01*
X166774761Y-110609047D01*
X166822380Y-110466190D01*
X166822380Y-110370952D01*
X166774761Y-110228095D01*
X166727142Y-110180476D01*
X166393809Y-110180476D01*
X166393809Y-110370952D01*
X169362380Y-111228095D02*
X168362380Y-111228095D01*
X168362380Y-110990000D01*
X168410000Y-110847142D01*
X168505238Y-110751904D01*
X168600476Y-110704285D01*
X168790952Y-110656666D01*
X168933809Y-110656666D01*
X169124285Y-110704285D01*
X169219523Y-110751904D01*
X169314761Y-110847142D01*
X169362380Y-110990000D01*
X169362380Y-111228095D01*
X168362380Y-109751904D02*
X168362380Y-110228095D01*
X168838571Y-110275714D01*
X168790952Y-110228095D01*
X168743333Y-110132857D01*
X168743333Y-109894761D01*
X168790952Y-109799523D01*
X168838571Y-109751904D01*
X168933809Y-109704285D01*
X169171904Y-109704285D01*
X169267142Y-109751904D01*
X169314761Y-109799523D01*
X169362380Y-109894761D01*
X169362380Y-110132857D01*
X169314761Y-110228095D01*
X169267142Y-110275714D01*
X171902380Y-111228095D02*
X170902380Y-111228095D01*
X170902380Y-110990000D01*
X170950000Y-110847142D01*
X171045238Y-110751904D01*
X171140476Y-110704285D01*
X171330952Y-110656666D01*
X171473809Y-110656666D01*
X171664285Y-110704285D01*
X171759523Y-110751904D01*
X171854761Y-110847142D01*
X171902380Y-110990000D01*
X171902380Y-111228095D01*
X170902380Y-109799523D02*
X170902380Y-109990000D01*
X170950000Y-110085238D01*
X170997619Y-110132857D01*
X171140476Y-110228095D01*
X171330952Y-110275714D01*
X171711904Y-110275714D01*
X171807142Y-110228095D01*
X171854761Y-110180476D01*
X171902380Y-110085238D01*
X171902380Y-109894761D01*
X171854761Y-109799523D01*
X171807142Y-109751904D01*
X171711904Y-109704285D01*
X171473809Y-109704285D01*
X171378571Y-109751904D01*
X171330952Y-109799523D01*
X171283333Y-109894761D01*
X171283333Y-110085238D01*
X171330952Y-110180476D01*
X171378571Y-110228095D01*
X171473809Y-110275714D01*
X174442380Y-111228095D02*
X173442380Y-111228095D01*
X173442380Y-110990000D01*
X173490000Y-110847142D01*
X173585238Y-110751904D01*
X173680476Y-110704285D01*
X173870952Y-110656666D01*
X174013809Y-110656666D01*
X174204285Y-110704285D01*
X174299523Y-110751904D01*
X174394761Y-110847142D01*
X174442380Y-110990000D01*
X174442380Y-111228095D01*
X173442380Y-110323333D02*
X173442380Y-109656666D01*
X174442380Y-110085238D01*
X176982380Y-111228095D02*
X175982380Y-111228095D01*
X175982380Y-110990000D01*
X176030000Y-110847142D01*
X176125238Y-110751904D01*
X176220476Y-110704285D01*
X176410952Y-110656666D01*
X176553809Y-110656666D01*
X176744285Y-110704285D01*
X176839523Y-110751904D01*
X176934761Y-110847142D01*
X176982380Y-110990000D01*
X176982380Y-111228095D01*
X176410952Y-110085238D02*
X176363333Y-110180476D01*
X176315714Y-110228095D01*
X176220476Y-110275714D01*
X176172857Y-110275714D01*
X176077619Y-110228095D01*
X176030000Y-110180476D01*
X175982380Y-110085238D01*
X175982380Y-109894761D01*
X176030000Y-109799523D01*
X176077619Y-109751904D01*
X176172857Y-109704285D01*
X176220476Y-109704285D01*
X176315714Y-109751904D01*
X176363333Y-109799523D01*
X176410952Y-109894761D01*
X176410952Y-110085238D01*
X176458571Y-110180476D01*
X176506190Y-110228095D01*
X176601428Y-110275714D01*
X176791904Y-110275714D01*
X176887142Y-110228095D01*
X176934761Y-110180476D01*
X176982380Y-110085238D01*
X176982380Y-109894761D01*
X176934761Y-109799523D01*
X176887142Y-109751904D01*
X176791904Y-109704285D01*
X176601428Y-109704285D01*
X176506190Y-109751904D01*
X176458571Y-109799523D01*
X176410952Y-109894761D01*
X179522380Y-110656666D02*
X179046190Y-110990000D01*
X179522380Y-111228095D02*
X178522380Y-111228095D01*
X178522380Y-110847142D01*
X178570000Y-110751904D01*
X178617619Y-110704285D01*
X178712857Y-110656666D01*
X178855714Y-110656666D01*
X178950952Y-110704285D01*
X178998571Y-110751904D01*
X179046190Y-110847142D01*
X179046190Y-111228095D01*
X178522380Y-110323333D02*
X179522380Y-109656666D01*
X178522380Y-109656666D02*
X179522380Y-110323333D01*
X181062380Y-111251904D02*
X181062380Y-110680476D01*
X182062380Y-110966190D02*
X181062380Y-110966190D01*
X181062380Y-110442380D02*
X182062380Y-109775714D01*
X181062380Y-109775714D02*
X182062380Y-110442380D01*
X183650000Y-110228095D02*
X183602380Y-110323333D01*
X183602380Y-110466190D01*
X183650000Y-110609047D01*
X183745238Y-110704285D01*
X183840476Y-110751904D01*
X184030952Y-110799523D01*
X184173809Y-110799523D01*
X184364285Y-110751904D01*
X184459523Y-110704285D01*
X184554761Y-110609047D01*
X184602380Y-110466190D01*
X184602380Y-110370952D01*
X184554761Y-110228095D01*
X184507142Y-110180476D01*
X184173809Y-110180476D01*
X184173809Y-110370952D01*
X186142380Y-111251904D02*
X186142380Y-110632857D01*
X186523333Y-110966190D01*
X186523333Y-110823333D01*
X186570952Y-110728095D01*
X186618571Y-110680476D01*
X186713809Y-110632857D01*
X186951904Y-110632857D01*
X187047142Y-110680476D01*
X187094761Y-110728095D01*
X187142380Y-110823333D01*
X187142380Y-111109047D01*
X187094761Y-111204285D01*
X187047142Y-111251904D01*
X186142380Y-110347142D02*
X187142380Y-110013809D01*
X186142380Y-109680476D01*
X151296666Y-134064285D02*
X151296666Y-133588095D01*
X151582380Y-134159523D02*
X150582380Y-133826190D01*
X151582380Y-133492857D01*
X150582380Y-132969047D02*
X150582380Y-132873809D01*
X150630000Y-132778571D01*
X150677619Y-132730952D01*
X150772857Y-132683333D01*
X150963333Y-132635714D01*
X151201428Y-132635714D01*
X151391904Y-132683333D01*
X151487142Y-132730952D01*
X151534761Y-132778571D01*
X151582380Y-132873809D01*
X151582380Y-132969047D01*
X151534761Y-133064285D01*
X151487142Y-133111904D01*
X151391904Y-133159523D01*
X151201428Y-133207142D01*
X150963333Y-133207142D01*
X150772857Y-133159523D01*
X150677619Y-133111904D01*
X150630000Y-133064285D01*
X150582380Y-132969047D01*
X153170000Y-133088095D02*
X153122380Y-133183333D01*
X153122380Y-133326190D01*
X153170000Y-133469047D01*
X153265238Y-133564285D01*
X153360476Y-133611904D01*
X153550952Y-133659523D01*
X153693809Y-133659523D01*
X153884285Y-133611904D01*
X153979523Y-133564285D01*
X154074761Y-133469047D01*
X154122380Y-133326190D01*
X154122380Y-133230952D01*
X154074761Y-133088095D01*
X154027142Y-133040476D01*
X153693809Y-133040476D01*
X153693809Y-133230952D01*
X155662380Y-134207142D02*
X156662380Y-133873809D01*
X155662380Y-133540476D01*
X155662380Y-133207142D02*
X156471904Y-133207142D01*
X156567142Y-133159523D01*
X156614761Y-133111904D01*
X156662380Y-133016666D01*
X156662380Y-132826190D01*
X156614761Y-132730952D01*
X156567142Y-132683333D01*
X156471904Y-132635714D01*
X155662380Y-132635714D01*
X159154761Y-134111904D02*
X159202380Y-133969047D01*
X159202380Y-133730952D01*
X159154761Y-133635714D01*
X159107142Y-133588095D01*
X159011904Y-133540476D01*
X158916666Y-133540476D01*
X158821428Y-133588095D01*
X158773809Y-133635714D01*
X158726190Y-133730952D01*
X158678571Y-133921428D01*
X158630952Y-134016666D01*
X158583333Y-134064285D01*
X158488095Y-134111904D01*
X158392857Y-134111904D01*
X158297619Y-134064285D01*
X158250000Y-134016666D01*
X158202380Y-133921428D01*
X158202380Y-133683333D01*
X158250000Y-133540476D01*
X158202380Y-133207142D02*
X158202380Y-132588095D01*
X158583333Y-132921428D01*
X158583333Y-132778571D01*
X158630952Y-132683333D01*
X158678571Y-132635714D01*
X158773809Y-132588095D01*
X159011904Y-132588095D01*
X159107142Y-132635714D01*
X159154761Y-132683333D01*
X159202380Y-132778571D01*
X159202380Y-133064285D01*
X159154761Y-133159523D01*
X159107142Y-133207142D01*
X161694761Y-134111904D02*
X161742380Y-133969047D01*
X161742380Y-133730952D01*
X161694761Y-133635714D01*
X161647142Y-133588095D01*
X161551904Y-133540476D01*
X161456666Y-133540476D01*
X161361428Y-133588095D01*
X161313809Y-133635714D01*
X161266190Y-133730952D01*
X161218571Y-133921428D01*
X161170952Y-134016666D01*
X161123333Y-134064285D01*
X161028095Y-134111904D01*
X160932857Y-134111904D01*
X160837619Y-134064285D01*
X160790000Y-134016666D01*
X160742380Y-133921428D01*
X160742380Y-133683333D01*
X160790000Y-133540476D01*
X160837619Y-133159523D02*
X160790000Y-133111904D01*
X160742380Y-133016666D01*
X160742380Y-132778571D01*
X160790000Y-132683333D01*
X160837619Y-132635714D01*
X160932857Y-132588095D01*
X161028095Y-132588095D01*
X161170952Y-132635714D01*
X161742380Y-133207142D01*
X161742380Y-132588095D01*
X164234761Y-134111904D02*
X164282380Y-133969047D01*
X164282380Y-133730952D01*
X164234761Y-133635714D01*
X164187142Y-133588095D01*
X164091904Y-133540476D01*
X163996666Y-133540476D01*
X163901428Y-133588095D01*
X163853809Y-133635714D01*
X163806190Y-133730952D01*
X163758571Y-133921428D01*
X163710952Y-134016666D01*
X163663333Y-134064285D01*
X163568095Y-134111904D01*
X163472857Y-134111904D01*
X163377619Y-134064285D01*
X163330000Y-134016666D01*
X163282380Y-133921428D01*
X163282380Y-133683333D01*
X163330000Y-133540476D01*
X164282380Y-132588095D02*
X164282380Y-133159523D01*
X164282380Y-132873809D02*
X163282380Y-132873809D01*
X163425238Y-132969047D01*
X163520476Y-133064285D01*
X163568095Y-133159523D01*
X166774761Y-134135714D02*
X166822380Y-133992857D01*
X166822380Y-133754761D01*
X166774761Y-133659523D01*
X166727142Y-133611904D01*
X166631904Y-133564285D01*
X166536666Y-133564285D01*
X166441428Y-133611904D01*
X166393809Y-133659523D01*
X166346190Y-133754761D01*
X166298571Y-133945238D01*
X166250952Y-134040476D01*
X166203333Y-134088095D01*
X166108095Y-134135714D01*
X166012857Y-134135714D01*
X165917619Y-134088095D01*
X165870000Y-134040476D01*
X165822380Y-133945238D01*
X165822380Y-133707142D01*
X165870000Y-133564285D01*
X166727142Y-132564285D02*
X166774761Y-132611904D01*
X166822380Y-132754761D01*
X166822380Y-132850000D01*
X166774761Y-132992857D01*
X166679523Y-133088095D01*
X166584285Y-133135714D01*
X166393809Y-133183333D01*
X166250952Y-133183333D01*
X166060476Y-133135714D01*
X165965238Y-133088095D01*
X165870000Y-132992857D01*
X165822380Y-132850000D01*
X165822380Y-132754761D01*
X165870000Y-132611904D01*
X165917619Y-132564285D01*
X169314761Y-134159523D02*
X169362380Y-134016666D01*
X169362380Y-133778571D01*
X169314761Y-133683333D01*
X169267142Y-133635714D01*
X169171904Y-133588095D01*
X169076666Y-133588095D01*
X168981428Y-133635714D01*
X168933809Y-133683333D01*
X168886190Y-133778571D01*
X168838571Y-133969047D01*
X168790952Y-134064285D01*
X168743333Y-134111904D01*
X168648095Y-134159523D01*
X168552857Y-134159523D01*
X168457619Y-134111904D01*
X168410000Y-134064285D01*
X168362380Y-133969047D01*
X168362380Y-133730952D01*
X168410000Y-133588095D01*
X168362380Y-132969047D02*
X168362380Y-132778571D01*
X168410000Y-132683333D01*
X168505238Y-132588095D01*
X168695714Y-132540476D01*
X169029047Y-132540476D01*
X169219523Y-132588095D01*
X169314761Y-132683333D01*
X169362380Y-132778571D01*
X169362380Y-132969047D01*
X169314761Y-133064285D01*
X169219523Y-133159523D01*
X169029047Y-133207142D01*
X168695714Y-133207142D01*
X168505238Y-133159523D01*
X168410000Y-133064285D01*
X168362380Y-132969047D01*
X171854761Y-134135714D02*
X171902380Y-133992857D01*
X171902380Y-133754761D01*
X171854761Y-133659523D01*
X171807142Y-133611904D01*
X171711904Y-133564285D01*
X171616666Y-133564285D01*
X171521428Y-133611904D01*
X171473809Y-133659523D01*
X171426190Y-133754761D01*
X171378571Y-133945238D01*
X171330952Y-134040476D01*
X171283333Y-134088095D01*
X171188095Y-134135714D01*
X171092857Y-134135714D01*
X170997619Y-134088095D01*
X170950000Y-134040476D01*
X170902380Y-133945238D01*
X170902380Y-133707142D01*
X170950000Y-133564285D01*
X171902380Y-133135714D02*
X170902380Y-133135714D01*
X171902380Y-132564285D02*
X171330952Y-132992857D01*
X170902380Y-132564285D02*
X171473809Y-133135714D01*
X173490000Y-133088095D02*
X173442380Y-133183333D01*
X173442380Y-133326190D01*
X173490000Y-133469047D01*
X173585238Y-133564285D01*
X173680476Y-133611904D01*
X173870952Y-133659523D01*
X174013809Y-133659523D01*
X174204285Y-133611904D01*
X174299523Y-133564285D01*
X174394761Y-133469047D01*
X174442380Y-133326190D01*
X174442380Y-133230952D01*
X174394761Y-133088095D01*
X174347142Y-133040476D01*
X174013809Y-133040476D01*
X174013809Y-133230952D01*
X175982380Y-134111904D02*
X175982380Y-133492857D01*
X176363333Y-133826190D01*
X176363333Y-133683333D01*
X176410952Y-133588095D01*
X176458571Y-133540476D01*
X176553809Y-133492857D01*
X176791904Y-133492857D01*
X176887142Y-133540476D01*
X176934761Y-133588095D01*
X176982380Y-133683333D01*
X176982380Y-133969047D01*
X176934761Y-134064285D01*
X176887142Y-134111904D01*
X175982380Y-133207142D02*
X176982380Y-132873809D01*
X175982380Y-132540476D01*
X178998571Y-134088095D02*
X178998571Y-133754761D01*
X179522380Y-133611904D02*
X179522380Y-134088095D01*
X178522380Y-134088095D01*
X178522380Y-133611904D01*
X179522380Y-133183333D02*
X178522380Y-133183333D01*
X179522380Y-132611904D01*
X178522380Y-132611904D01*
X182062380Y-133897619D02*
X181586190Y-134230952D01*
X182062380Y-134469047D02*
X181062380Y-134469047D01*
X181062380Y-134088095D01*
X181110000Y-133992857D01*
X181157619Y-133945238D01*
X181252857Y-133897619D01*
X181395714Y-133897619D01*
X181490952Y-133945238D01*
X181538571Y-133992857D01*
X181586190Y-134088095D01*
X181586190Y-134469047D01*
X182014761Y-133516666D02*
X182062380Y-133373809D01*
X182062380Y-133135714D01*
X182014761Y-133040476D01*
X181967142Y-132992857D01*
X181871904Y-132945238D01*
X181776666Y-132945238D01*
X181681428Y-132992857D01*
X181633809Y-133040476D01*
X181586190Y-133135714D01*
X181538571Y-133326190D01*
X181490952Y-133421428D01*
X181443333Y-133469047D01*
X181348095Y-133516666D01*
X181252857Y-133516666D01*
X181157619Y-133469047D01*
X181110000Y-133421428D01*
X181062380Y-133326190D01*
X181062380Y-133088095D01*
X181110000Y-132945238D01*
X181062380Y-132659523D02*
X181062380Y-132088095D01*
X182062380Y-132373809D02*
X181062380Y-132373809D01*
X183650000Y-133088095D02*
X183602380Y-133183333D01*
X183602380Y-133326190D01*
X183650000Y-133469047D01*
X183745238Y-133564285D01*
X183840476Y-133611904D01*
X184030952Y-133659523D01*
X184173809Y-133659523D01*
X184364285Y-133611904D01*
X184459523Y-133564285D01*
X184554761Y-133469047D01*
X184602380Y-133326190D01*
X184602380Y-133230952D01*
X184554761Y-133088095D01*
X184507142Y-133040476D01*
X184173809Y-133040476D01*
X184173809Y-133230952D01*
X186142380Y-134445238D02*
X187142380Y-134111904D01*
X186142380Y-133778571D01*
X187142380Y-133445238D02*
X186142380Y-133445238D01*
X187142380Y-132969047D02*
X186142380Y-132969047D01*
X187142380Y-132397619D01*
X186142380Y-132397619D01*
X149042380Y-125372380D02*
X148566190Y-125705714D01*
X149042380Y-125943809D02*
X148042380Y-125943809D01*
X148042380Y-125562857D01*
X148090000Y-125467619D01*
X148137619Y-125420000D01*
X148232857Y-125372380D01*
X148375714Y-125372380D01*
X148470952Y-125420000D01*
X148518571Y-125467619D01*
X148566190Y-125562857D01*
X148566190Y-125943809D01*
X148518571Y-124610476D02*
X148518571Y-124943809D01*
X149042380Y-124943809D02*
X148042380Y-124943809D01*
X148042380Y-124467619D01*
X148756666Y-123372380D02*
X148756666Y-122896190D01*
X149042380Y-123467619D02*
X148042380Y-123134285D01*
X149042380Y-122800952D01*
X148375714Y-122467619D02*
X149042380Y-122467619D01*
X148470952Y-122467619D02*
X148423333Y-122420000D01*
X148375714Y-122324761D01*
X148375714Y-122181904D01*
X148423333Y-122086666D01*
X148518571Y-122039047D01*
X149042380Y-122039047D01*
X148375714Y-121705714D02*
X148375714Y-121324761D01*
X148042380Y-121562857D02*
X148899523Y-121562857D01*
X148994761Y-121515238D01*
X149042380Y-121420000D01*
X149042380Y-121324761D01*
X148994761Y-120610476D02*
X149042380Y-120705714D01*
X149042380Y-120896190D01*
X148994761Y-120991428D01*
X148899523Y-121039047D01*
X148518571Y-121039047D01*
X148423333Y-120991428D01*
X148375714Y-120896190D01*
X148375714Y-120705714D01*
X148423333Y-120610476D01*
X148518571Y-120562857D01*
X148613809Y-120562857D01*
X148709047Y-121039047D01*
X148375714Y-120134285D02*
X149042380Y-120134285D01*
X148470952Y-120134285D02*
X148423333Y-120086666D01*
X148375714Y-119991428D01*
X148375714Y-119848571D01*
X148423333Y-119753333D01*
X148518571Y-119705714D01*
X149042380Y-119705714D01*
X148375714Y-119229523D02*
X149042380Y-119229523D01*
X148470952Y-119229523D02*
X148423333Y-119181904D01*
X148375714Y-119086666D01*
X148375714Y-118943809D01*
X148423333Y-118848571D01*
X148518571Y-118800952D01*
X149042380Y-118800952D01*
X149042380Y-117896190D02*
X148518571Y-117896190D01*
X148423333Y-117943809D01*
X148375714Y-118039047D01*
X148375714Y-118229523D01*
X148423333Y-118324761D01*
X148994761Y-117896190D02*
X149042380Y-117991428D01*
X149042380Y-118229523D01*
X148994761Y-118324761D01*
X148899523Y-118372380D01*
X148804285Y-118372380D01*
X148709047Y-118324761D01*
X148661428Y-118229523D01*
X148661428Y-117991428D01*
X148613809Y-117896190D01*
X191222380Y-123181904D02*
X192031904Y-123181904D01*
X192127142Y-123134285D01*
X192174761Y-123086666D01*
X192222380Y-122991428D01*
X192222380Y-122800952D01*
X192174761Y-122705714D01*
X192127142Y-122658095D01*
X192031904Y-122610476D01*
X191222380Y-122610476D01*
X192174761Y-122181904D02*
X192222380Y-122039047D01*
X192222380Y-121800952D01*
X192174761Y-121705714D01*
X192127142Y-121658095D01*
X192031904Y-121610476D01*
X191936666Y-121610476D01*
X191841428Y-121658095D01*
X191793809Y-121705714D01*
X191746190Y-121800952D01*
X191698571Y-121991428D01*
X191650952Y-122086666D01*
X191603333Y-122134285D01*
X191508095Y-122181904D01*
X191412857Y-122181904D01*
X191317619Y-122134285D01*
X191270000Y-122086666D01*
X191222380Y-121991428D01*
X191222380Y-121753333D01*
X191270000Y-121610476D01*
X191698571Y-120848571D02*
X191746190Y-120705714D01*
X191793809Y-120658095D01*
X191889047Y-120610476D01*
X192031904Y-120610476D01*
X192127142Y-120658095D01*
X192174761Y-120705714D01*
X192222380Y-120800952D01*
X192222380Y-121181904D01*
X191222380Y-121181904D01*
X191222380Y-120848571D01*
X191270000Y-120753333D01*
X191317619Y-120705714D01*
X191412857Y-120658095D01*
X191508095Y-120658095D01*
X191603333Y-120705714D01*
X191650952Y-120753333D01*
X191698571Y-120848571D01*
X191698571Y-121181904D01*
M02*
